<svg id="visual" viewBox="0 0 960 150" width="960" height="150" xmlns="http://www.w3.org/2000/svg" xmlns:xlink="http://www.w3.org/1999/xlink" version="1.1"><rect x="0" y="0" width="960" height="150" fill="#dd3f31"></rect><path d="M0 82L7 87.8C14 93.7 28 105.3 41.8 107.8C55.7 110.3 69.3 103.7 83.2 103.8C97 104 111 111 125 107.3C139 103.7 153 89.3 167 86.5C181 83.7 195 92.3 208.8 94.3C222.7 96.3 236.3 91.7 250.2 86.5C264 81.3 278 75.7 292 79.2C306 82.7 320 95.3 334 94.2C348 93 362 78 375.8 79C389.7 80 403.3 97 417.2 101.8C431 106.7 445 99.3 459 96.7C473 94 487 96 501 92.7C515 89.3 529 80.7 542.8 74.2C556.7 67.7 570.3 63.3 584.2 66.2C598 69 612 79 626 89.5C640 100 654 111 668 111C682 111 696 100 709.8 89.5C723.7 79 737.3 69 751.2 68C765 67 779 75 793 76C807 77 821 71 835 74.3C849 77.7 863 90.3 876.8 98C890.7 105.7 904.3 108.3 918.2 103.2C932 98 946 85 953 78.5L960 72L960 0L953 0C946 0 932 0 918.2 0C904.3 0 890.7 0 876.8 0C863 0 849 0 835 0C821 0 807 0 793 0C779 0 765 0 751.2 0C737.3 0 723.7 0 709.8 0C696 0 682 0 668 0C654 0 640 0 626 0C612 0 598 0 584.2 0C570.3 0 556.7 0 542.8 0C529 0 515 0 501 0C487 0 473 0 459 0C445 0 431 0 417.2 0C403.3 0 389.7 0 375.8 0C362 0 348 0 334 0C320 0 306 0 292 0C278 0 264 0 250.2 0C236.3 0 222.7 0 208.8 0C195 0 181 0 167 0C153 0 139 0 125 0C111 0 97 0 83.2 0C69.3 0 55.7 0 41.8 0C28 0 14 0 7 0L0 0Z" fill="#dd3f31"></path><path d="M0 73L7 69.7C14 66.3 28 59.7 41.8 58.5C55.7 57.3 69.3 61.7 83.2 61.2C97 60.7 111 55.3 125 57.8C139 60.3 153 70.7 167 72.5C181 74.3 195 67.7 208.8 68.2C222.7 68.7 236.3 76.3 250.2 76.8C264 77.3 278 70.7 292 75C306 79.3 320 94.7 334 96.3C348 98 362 86 375.8 85C389.7 84 403.3 94 417.2 95.3C431 96.7 445 89.3 459 89.5C473 89.7 487 97.3 501 98.7C515 100 529 95 542.8 87.2C556.7 79.3 570.3 68.7 584.2 64C598 59.3 612 60.7 626 64C640 67.3 654 72.7 668 70.7C682 68.7 696 59.3 709.8 55.7C723.7 52 737.3 54 751.2 56.3C765 58.7 779 61.3 793 62.5C807 63.7 821 63.3 835 68C849 72.7 863 82.3 876.8 85.8C890.7 89.3 904.3 86.7 918.2 86.2C932 85.7 946 87.3 953 88.2L960 89L960 0L953 0C946 0 932 0 918.2 0C904.3 0 890.7 0 876.8 0C863 0 849 0 835 0C821 0 807 0 793 0C779 0 765 0 751.2 0C737.3 0 723.7 0 709.8 0C696 0 682 0 668 0C654 0 640 0 626 0C612 0 598 0 584.2 0C570.3 0 556.7 0 542.8 0C529 0 515 0 501 0C487 0 473 0 459 0C445 0 431 0 417.2 0C403.3 0 389.7 0 375.8 0C362 0 348 0 334 0C320 0 306 0 292 0C278 0 264 0 250.2 0C236.3 0 222.7 0 208.8 0C195 0 181 0 167 0C153 0 139 0 125 0C111 0 97 0 83.2 0C69.3 0 55.7 0 41.8 0C28 0 14 0 7 0L0 0Z" fill="#e12a47"></path><path d="M0 71L7 71.7C14 72.3 28 73.7 41.8 73.5C55.7 73.3 69.3 71.7 83.2 74.8C97 78 111 86 125 84.5C139 83 153 72 167 70.3C181 68.7 195 76.3 208.8 77C222.7 77.7 236.3 71.3 250.2 68.5C264 65.7 278 66.3 292 64.8C306 63.3 320 59.7 334 64.3C348 69 362 82 375.8 83.7C389.7 85.3 403.3 75.7 417.2 67.5C431 59.3 445 52.7 459 50.8C473 49 487 52 501 58.2C515 64.3 529 73.7 542.8 75.3C556.7 77 570.3 71 584.2 66.8C598 62.7 612 60.3 626 60.3C640 60.3 654 62.7 668 61.8C682 61 696 57 709.8 57.3C723.7 57.7 737.3 62.3 751.2 63.5C765 64.7 779 62.3 793 62.3C807 62.3 821 64.7 835 70.5C849 76.3 863 85.7 876.8 83C890.7 80.3 904.3 65.7 918.2 61.8C932 58 946 65 953 68.5L960 72L960 0L953 0C946 0 932 0 918.2 0C904.3 0 890.7 0 876.8 0C863 0 849 0 835 0C821 0 807 0 793 0C779 0 765 0 751.2 0C737.3 0 723.7 0 709.8 0C696 0 682 0 668 0C654 0 640 0 626 0C612 0 598 0 584.2 0C570.3 0 556.7 0 542.8 0C529 0 515 0 501 0C487 0 473 0 459 0C445 0 431 0 417.2 0C403.3 0 389.7 0 375.8 0C362 0 348 0 334 0C320 0 306 0 292 0C278 0 264 0 250.2 0C236.3 0 222.7 0 208.8 0C195 0 181 0 167 0C153 0 139 0 125 0C111 0 97 0 83.2 0C69.3 0 55.7 0 41.8 0C28 0 14 0 7 0L0 0Z" fill="#e0125d"></path><path d="M0 75L7 76.2C14 77.3 28 79.7 41.8 75C55.7 70.3 69.3 58.7 83.2 52.8C97 47 111 47 125 46.8C139 46.7 153 46.3 167 50.8C181 55.3 195 64.7 208.8 63C222.7 61.3 236.3 48.7 250.2 47.5C264 46.3 278 56.7 292 62C306 67.3 320 67.7 334 66.2C348 64.7 362 61.3 375.8 63.7C389.7 66 403.3 74 417.2 71.7C431 69.3 445 56.7 459 51.8C473 47 487 50 501 49C515 48 529 43 542.8 46C556.7 49 570.3 60 584.2 60.5C598 61 612 51 626 45.2C640 39.3 654 37.7 668 38.8C682 40 696 44 709.8 44.8C723.7 45.7 737.3 43.3 751.2 47C765 50.7 779 60.3 793 60.2C807 60 821 50 835 48.5C849 47 863 54 876.8 57.2C890.7 60.3 904.3 59.7 918.2 57C932 54.3 946 49.7 953 47.3L960 45L960 0L953 0C946 0 932 0 918.2 0C904.3 0 890.7 0 876.8 0C863 0 849 0 835 0C821 0 807 0 793 0C779 0 765 0 751.2 0C737.3 0 723.7 0 709.8 0C696 0 682 0 668 0C654 0 640 0 626 0C612 0 598 0 584.2 0C570.3 0 556.7 0 542.8 0C529 0 515 0 501 0C487 0 473 0 459 0C445 0 431 0 417.2 0C403.3 0 389.7 0 375.8 0C362 0 348 0 334 0C320 0 306 0 292 0C278 0 264 0 250.2 0C236.3 0 222.7 0 208.8 0C195 0 181 0 167 0C153 0 139 0 125 0C111 0 97 0 83.2 0C69.3 0 55.7 0 41.8 0C28 0 14 0 7 0L0 0Z" fill="#da0074"></path><path d="M0 48L7 45.8C14 43.7 28 39.3 41.8 40.7C55.7 42 69.3 49 83.2 52.8C97 56.7 111 57.3 125 57.8C139 58.3 153 58.7 167 54.7C181 50.7 195 42.3 208.8 43C222.7 43.7 236.3 53.3 250.2 57.3C264 61.3 278 59.7 292 59C306 58.3 320 58.7 334 56.7C348 54.7 362 50.3 375.8 45.5C389.7 40.7 403.3 35.3 417.2 34C431 32.7 445 35.3 459 37.7C473 40 487 42 501 41C515 40 529 36 542.8 35.8C556.7 35.7 570.3 39.3 584.2 42.3C598 45.3 612 47.7 626 49.7C640 51.7 654 53.3 668 52.5C682 51.7 696 48.3 709.8 47.2C723.7 46 737.3 47 751.2 48.7C765 50.3 779 52.7 793 50.2C807 47.7 821 40.3 835 39.5C849 38.7 863 44.3 876.8 49C890.7 53.7 904.3 57.3 918.2 60.2C932 63 946 65 953 66L960 67L960 0L953 0C946 0 932 0 918.2 0C904.3 0 890.7 0 876.8 0C863 0 849 0 835 0C821 0 807 0 793 0C779 0 765 0 751.2 0C737.3 0 723.7 0 709.8 0C696 0 682 0 668 0C654 0 640 0 626 0C612 0 598 0 584.2 0C570.3 0 556.7 0 542.8 0C529 0 515 0 501 0C487 0 473 0 459 0C445 0 431 0 417.2 0C403.3 0 389.7 0 375.8 0C362 0 348 0 334 0C320 0 306 0 292 0C278 0 264 0 250.2 0C236.3 0 222.7 0 208.8 0C195 0 181 0 167 0C153 0 139 0 125 0C111 0 97 0 83.2 0C69.3 0 55.7 0 41.8 0C28 0 14 0 7 0L0 0Z" fill="#ce008c"></path><path d="M0 37L7 34.7C14 32.3 28 27.7 41.8 25.2C55.7 22.7 69.3 22.3 83.2 22.5C97 22.7 111 23.3 125 25C139 26.7 153 29.3 167 34C181 38.7 195 45.3 208.8 47C222.7 48.7 236.3 45.3 250.2 43.7C264 42 278 42 292 43.5C306 45 320 48 334 44.7C348 41.3 362 31.7 375.8 31.8C389.7 32 403.3 42 417.2 47C431 52 445 52 459 52.3C473 52.7 487 53.3 501 48.8C515 44.3 529 34.7 542.8 34.7C556.7 34.7 570.3 44.3 584.2 44.5C598 44.7 612 35.3 626 33.3C640 31.3 654 36.7 668 37.8C682 39 696 36 709.8 33.5C723.7 31 737.3 29 751.2 28.3C765 27.7 779 28.3 793 27.5C807 26.7 821 24.3 835 25.2C849 26 863 30 876.8 31.3C890.7 32.7 904.3 31.3 918.2 29.7C932 28 946 26 953 25L960 24L960 0L953 0C946 0 932 0 918.2 0C904.3 0 890.7 0 876.8 0C863 0 849 0 835 0C821 0 807 0 793 0C779 0 765 0 751.2 0C737.3 0 723.7 0 709.8 0C696 0 682 0 668 0C654 0 640 0 626 0C612 0 598 0 584.2 0C570.3 0 556.7 0 542.8 0C529 0 515 0 501 0C487 0 473 0 459 0C445 0 431 0 417.2 0C403.3 0 389.7 0 375.8 0C362 0 348 0 334 0C320 0 306 0 292 0C278 0 264 0 250.2 0C236.3 0 222.7 0 208.8 0C195 0 181 0 167 0C153 0 139 0 125 0C111 0 97 0 83.2 0C69.3 0 55.7 0 41.8 0C28 0 14 0 7 0L0 0Z" fill="#b700a6"></path><path d="M0 36L7 35.7C14 35.3 28 34.7 41.8 33.5C55.7 32.3 69.3 30.7 83.2 27.7C97 24.7 111 20.3 125 19.5C139 18.7 153 21.3 167 24.3C181 27.3 195 30.7 208.8 31.7C222.7 32.7 236.3 31.3 250.2 32C264 32.7 278 35.3 292 32.7C306 30 320 22 334 19.5C348 17 362 20 375.8 22.5C389.7 25 403.3 27 417.2 29.2C431 31.3 445 33.7 459 31.2C473 28.7 487 21.3 501 17.5C515 13.7 529 13.3 542.8 17C556.7 20.7 570.3 28.3 584.2 31.7C598 35 612 34 626 31.5C640 29 654 25 668 23.2C682 21.3 696 21.7 709.8 24C723.7 26.3 737.3 30.7 751.2 32.7C765 34.7 779 34.3 793 32.7C807 31 821 28 835 25.7C849 23.3 863 21.7 876.8 23.3C890.7 25 904.3 30 918.2 30.7C932 31.3 946 27.7 953 25.8L960 24L960 0L953 0C946 0 932 0 918.2 0C904.3 0 890.7 0 876.8 0C863 0 849 0 835 0C821 0 807 0 793 0C779 0 765 0 751.2 0C737.3 0 723.7 0 709.8 0C696 0 682 0 668 0C654 0 640 0 626 0C612 0 598 0 584.2 0C570.3 0 556.7 0 542.8 0C529 0 515 0 501 0C487 0 473 0 459 0C445 0 431 0 417.2 0C403.3 0 389.7 0 375.8 0C362 0 348 0 334 0C320 0 306 0 292 0C278 0 264 0 250.2 0C236.3 0 222.7 0 208.8 0C195 0 181 0 167 0C153 0 139 0 125 0C111 0 97 0 83.2 0C69.3 0 55.7 0 41.8 0C28 0 14 0 7 0L0 0Z" fill="#8f11c2"></path><path d="M0 23L7 23.3C14 23.7 28 24.3 41.8 22.7C55.7 21 69.3 17 83.2 17C97 17 111 21 125 22.8C139 24.7 153 24.3 167 21.8C181 19.3 195 14.7 208.8 14.2C222.7 13.7 236.3 17.3 250.2 17.5C264 17.7 278 14.3 292 14.7C306 15 320 19 334 21C348 23 362 23 375.8 21C389.7 19 403.3 15 417.2 13.5C431 12 445 13 459 12.8C473 12.7 487 11.3 501 11C515 10.7 529 11.3 542.8 13.7C556.7 16 570.3 20 584.2 21.5C598 23 612 22 626 20.7C640 19.3 654 17.7 668 16.2C682 14.7 696 13.3 709.8 14.2C723.7 15 737.3 18 751.2 17.7C765 17.3 779 13.7 793 12.3C807 11 821 12 835 14C849 16 863 19 876.8 20.8C890.7 22.7 904.3 23.3 918.2 23C932 22.7 946 21.3 953 20.7L960 20L960 0L953 0C946 0 932 0 918.2 0C904.3 0 890.7 0 876.8 0C863 0 849 0 835 0C821 0 807 0 793 0C779 0 765 0 751.2 0C737.3 0 723.7 0 709.8 0C696 0 682 0 668 0C654 0 640 0 626 0C612 0 598 0 584.2 0C570.3 0 556.7 0 542.8 0C529 0 515 0 501 0C487 0 473 0 459 0C445 0 431 0 417.2 0C403.3 0 389.7 0 375.8 0C362 0 348 0 334 0C320 0 306 0 292 0C278 0 264 0 250.2 0C236.3 0 222.7 0 208.8 0C195 0 181 0 167 0C153 0 139 0 125 0C111 0 97 0 83.2 0C69.3 0 55.7 0 41.8 0C28 0 14 0 7 0L0 0Z" fill="#3c31dd"></path></svg>