<svg id="visual" viewBox="0 0 960 150" width="960" height="150" xmlns="http://www.w3.org/2000/svg" xmlns:xlink="http://www.w3.org/1999/xlink" version="1.1"><rect x="0" y="0" width="960" height="150" fill="#FFFFFF"></rect><path d="M0 145L7 142.3C14 139.7 28 134.3 41.8 130.5C55.7 126.7 69.3 124.3 83.2 123.7C97 123 111 124 125 126C139 128 153 131 167 134.3C181 137.7 195 141.3 208.8 139.5C222.7 137.7 236.3 130.3 250.2 128.3C264 126.3 278 129.7 292 131.8C306 134 320 135 334 134C348 133 362 130 375.8 131.2C389.7 132.3 403.3 137.7 417.2 139.2C431 140.7 445 138.3 459 136.2C473 134 487 132 501 131.3C515 130.7 529 131.3 542.8 131.5C556.7 131.7 570.3 131.3 584.2 132.3C598 133.3 612 135.7 626 135.2C640 134.7 654 131.3 668 128.8C682 126.3 696 124.7 709.8 125.5C723.7 126.3 737.3 129.7 751.2 129.3C765 129 779 125 793 125.5C807 126 821 131 835 135C849 139 863 142 876.8 141.3C890.7 140.7 904.3 136.3 918.2 135.7C932 135 946 138 953 139.5L960 141L960 0L953 0C946 0 932 0 918.2 0C904.3 0 890.7 0 876.8 0C863 0 849 0 835 0C821 0 807 0 793 0C779 0 765 0 751.2 0C737.3 0 723.7 0 709.8 0C696 0 682 0 668 0C654 0 640 0 626 0C612 0 598 0 584.2 0C570.3 0 556.7 0 542.8 0C529 0 515 0 501 0C487 0 473 0 459 0C445 0 431 0 417.2 0C403.3 0 389.7 0 375.8 0C362 0 348 0 334 0C320 0 306 0 292 0C278 0 264 0 250.2 0C236.3 0 222.7 0 208.8 0C195 0 181 0 167 0C153 0 139 0 125 0C111 0 97 0 83.2 0C69.3 0 55.7 0 41.8 0C28 0 14 0 7 0L0 0Z" fill="#ffffff"></path><path d="M0 117L7 115.7C14 114.3 28 111.7 41.8 109.7C55.7 107.7 69.3 106.3 83.2 108.5C97 110.7 111 116.3 125 117.2C139 118 153 114 167 112.5C181 111 195 112 208.8 114.2C222.7 116.3 236.3 119.7 250.2 118.5C264 117.3 278 111.7 292 108.3C306 105 320 104 334 103.8C348 103.7 362 104.3 375.8 105.8C389.7 107.3 403.3 109.7 417.2 110.3C431 111 445 110 459 108.5C473 107 487 105 501 107.3C515 109.7 529 116.3 542.8 117C556.7 117.7 570.3 112.3 584.2 110.7C598 109 612 111 626 110.7C640 110.3 654 107.7 668 109.8C682 112 696 119 709.8 119.2C723.7 119.3 737.3 112.7 751.2 109C765 105.3 779 104.7 793 108C807 111.3 821 118.7 835 118.7C849 118.7 863 111.3 876.8 110.8C890.7 110.3 904.3 116.7 918.2 117C932 117.3 946 111.7 953 108.8L960 106L960 0L953 0C946 0 932 0 918.2 0C904.3 0 890.7 0 876.8 0C863 0 849 0 835 0C821 0 807 0 793 0C779 0 765 0 751.2 0C737.3 0 723.7 0 709.8 0C696 0 682 0 668 0C654 0 640 0 626 0C612 0 598 0 584.2 0C570.3 0 556.7 0 542.8 0C529 0 515 0 501 0C487 0 473 0 459 0C445 0 431 0 417.2 0C403.3 0 389.7 0 375.8 0C362 0 348 0 334 0C320 0 306 0 292 0C278 0 264 0 250.2 0C236.3 0 222.7 0 208.8 0C195 0 181 0 167 0C153 0 139 0 125 0C111 0 97 0 83.2 0C69.3 0 55.7 0 41.8 0C28 0 14 0 7 0L0 0Z" fill="#eae0fb"></path><path d="M0 90L7 89.7C14 89.3 28 88.7 41.8 91.7C55.7 94.7 69.3 101.3 83.2 101.7C97 102 111 96 125 94C139 92 153 94 167 94C181 94 195 92 208.8 91.2C222.7 90.3 236.3 90.7 250.2 93.8C264 97 278 103 292 103.2C306 103.3 320 97.7 334 97.8C348 98 362 104 375.8 104.3C389.7 104.7 403.3 99.3 417.2 96.3C431 93.3 445 92.7 459 92.5C473 92.3 487 92.7 501 92.8C515 93 529 93 542.8 95C556.7 97 570.3 101 584.2 103C598 105 612 105 626 102C640 99 654 93 668 90.8C682 88.7 696 90.3 709.8 90.7C723.7 91 737.3 90 751.2 90.8C765 91.7 779 94.3 793 97.7C807 101 821 105 835 107.5C849 110 863 111 876.8 108.7C890.7 106.3 904.3 100.7 918.2 97C932 93.3 946 91.7 953 90.8L960 90L960 0L953 0C946 0 932 0 918.2 0C904.3 0 890.7 0 876.8 0C863 0 849 0 835 0C821 0 807 0 793 0C779 0 765 0 751.2 0C737.3 0 723.7 0 709.8 0C696 0 682 0 668 0C654 0 640 0 626 0C612 0 598 0 584.2 0C570.3 0 556.7 0 542.8 0C529 0 515 0 501 0C487 0 473 0 459 0C445 0 431 0 417.2 0C403.3 0 389.7 0 375.8 0C362 0 348 0 334 0C320 0 306 0 292 0C278 0 264 0 250.2 0C236.3 0 222.7 0 208.8 0C195 0 181 0 167 0C153 0 139 0 125 0C111 0 97 0 83.2 0C69.3 0 55.7 0 41.8 0C28 0 14 0 7 0L0 0Z" fill="#d3c2f7"></path><path d="M0 73L7 73.8C14 74.7 28 76.3 41.8 76.8C55.7 77.3 69.3 76.7 83.2 76.8C97 77 111 78 125 77.5C139 77 153 75 167 76.7C181 78.3 195 83.7 208.8 85.2C222.7 86.7 236.3 84.3 250.2 83.2C264 82 278 82 292 83.3C306 84.7 320 87.3 334 89.7C348 92 362 94 375.8 90.8C389.7 87.7 403.3 79.3 417.2 78C431 76.7 445 82.3 459 85.7C473 89 487 90 501 90.5C515 91 529 91 542.8 91.3C556.7 91.7 570.3 92.3 584.2 91.2C598 90 612 87 626 85.5C640 84 654 84 668 84.5C682 85 696 86 709.8 85.7C723.7 85.3 737.3 83.7 751.2 81C765 78.3 779 74.7 793 75.5C807 76.3 821 81.7 835 84.3C849 87 863 87 876.8 84.8C890.7 82.7 904.3 78.3 918.2 75.3C932 72.3 946 70.7 953 69.8L960 69L960 0L953 0C946 0 932 0 918.2 0C904.3 0 890.7 0 876.8 0C863 0 849 0 835 0C821 0 807 0 793 0C779 0 765 0 751.2 0C737.3 0 723.7 0 709.8 0C696 0 682 0 668 0C654 0 640 0 626 0C612 0 598 0 584.2 0C570.3 0 556.7 0 542.8 0C529 0 515 0 501 0C487 0 473 0 459 0C445 0 431 0 417.2 0C403.3 0 389.7 0 375.8 0C362 0 348 0 334 0C320 0 306 0 292 0C278 0 264 0 250.2 0C236.3 0 222.7 0 208.8 0C195 0 181 0 167 0C153 0 139 0 125 0C111 0 97 0 83.2 0C69.3 0 55.7 0 41.8 0C28 0 14 0 7 0L0 0Z" fill="#bca4f2"></path><path d="M0 70L7 69.8C14 69.7 28 69.3 41.8 70.3C55.7 71.3 69.3 73.7 83.2 73.5C97 73.3 111 70.7 125 68.8C139 67 153 66 167 65C181 64 195 63 208.8 63.7C222.7 64.3 236.3 66.7 250.2 67.8C264 69 278 69 292 66.8C306 64.7 320 60.3 334 58.5C348 56.7 362 57.3 375.8 59.5C389.7 61.7 403.3 65.3 417.2 68.3C431 71.3 445 73.7 459 74.3C473 75 487 74 501 71.3C515 68.7 529 64.3 542.8 62.5C556.7 60.7 570.3 61.3 584.2 63.8C598 66.3 612 70.7 626 73.2C640 75.7 654 76.3 668 73C682 69.7 696 62.3 709.8 60.2C723.7 58 737.3 61 751.2 64.7C765 68.3 779 72.7 793 73.8C807 75 821 73 835 72.2C849 71.3 863 71.7 876.8 72C890.7 72.3 904.3 72.7 918.2 70C932 67.3 946 61.7 953 58.8L960 56L960 0L953 0C946 0 932 0 918.2 0C904.3 0 890.7 0 876.8 0C863 0 849 0 835 0C821 0 807 0 793 0C779 0 765 0 751.2 0C737.3 0 723.7 0 709.8 0C696 0 682 0 668 0C654 0 640 0 626 0C612 0 598 0 584.2 0C570.3 0 556.7 0 542.8 0C529 0 515 0 501 0C487 0 473 0 459 0C445 0 431 0 417.2 0C403.3 0 389.7 0 375.8 0C362 0 348 0 334 0C320 0 306 0 292 0C278 0 264 0 250.2 0C236.3 0 222.7 0 208.8 0C195 0 181 0 167 0C153 0 139 0 125 0C111 0 97 0 83.2 0C69.3 0 55.7 0 41.8 0C28 0 14 0 7 0L0 0Z" fill="#a387ee"></path><path d="M0 59L7 56C14 53 28 47 41.8 46.8C55.7 46.7 69.3 52.3 83.2 54C97 55.7 111 53.3 125 52C139 50.7 153 50.3 167 50.7C181 51 195 52 208.8 52C222.7 52 236.3 51 250.2 50.5C264 50 278 50 292 48.8C306 47.7 320 45.3 334 46.3C348 47.3 362 51.7 375.8 52.2C389.7 52.7 403.3 49.3 417.2 46.8C431 44.3 445 42.7 459 42C473 41.3 487 41.7 501 41.5C515 41.3 529 40.7 542.8 41.5C556.7 42.3 570.3 44.7 584.2 48.3C598 52 612 57 626 55.7C640 54.3 654 46.7 668 45.5C682 44.3 696 49.7 709.8 51.7C723.7 53.7 737.3 52.3 751.2 52.3C765 52.3 779 53.7 793 52.5C807 51.3 821 47.7 835 47C849 46.3 863 48.7 876.8 48.3C890.7 48 904.3 45 918.2 44.8C932 44.7 946 47.3 953 48.7L960 50L960 0L953 0C946 0 932 0 918.2 0C904.3 0 890.7 0 876.8 0C863 0 849 0 835 0C821 0 807 0 793 0C779 0 765 0 751.2 0C737.3 0 723.7 0 709.8 0C696 0 682 0 668 0C654 0 640 0 626 0C612 0 598 0 584.2 0C570.3 0 556.7 0 542.8 0C529 0 515 0 501 0C487 0 473 0 459 0C445 0 431 0 417.2 0C403.3 0 389.7 0 375.8 0C362 0 348 0 334 0C320 0 306 0 292 0C278 0 264 0 250.2 0C236.3 0 222.7 0 208.8 0C195 0 181 0 167 0C153 0 139 0 125 0C111 0 97 0 83.2 0C69.3 0 55.7 0 41.8 0C28 0 14 0 7 0L0 0Z" fill="#886ae8"></path><path d="M0 24L7 24.5C14 25 28 26 41.8 29.3C55.7 32.7 69.3 38.3 83.2 38.3C97 38.3 111 32.7 125 32.5C139 32.3 153 37.7 167 38.3C181 39 195 35 208.8 32.7C222.7 30.3 236.3 29.7 250.2 31.7C264 33.7 278 38.3 292 37.3C306 36.3 320 29.7 334 29.7C348 29.7 362 36.3 375.8 36.3C389.7 36.3 403.3 29.7 417.2 28.2C431 26.7 445 30.3 459 31.3C473 32.3 487 30.7 501 31.8C515 33 529 37 542.8 37.2C556.7 37.3 570.3 33.7 584.2 33.8C598 34 612 38 626 38.7C640 39.3 654 36.7 668 36.5C682 36.3 696 38.7 709.8 38C723.7 37.3 737.3 33.7 751.2 34.2C765 34.7 779 39.3 793 40.7C807 42 821 40 835 37C849 34 863 30 876.8 29C890.7 28 904.3 30 918.2 29.8C932 29.7 946 27.3 953 26.2L960 25L960 0L953 0C946 0 932 0 918.2 0C904.3 0 890.7 0 876.8 0C863 0 849 0 835 0C821 0 807 0 793 0C779 0 765 0 751.2 0C737.3 0 723.7 0 709.8 0C696 0 682 0 668 0C654 0 640 0 626 0C612 0 598 0 584.2 0C570.3 0 556.7 0 542.8 0C529 0 515 0 501 0C487 0 473 0 459 0C445 0 431 0 417.2 0C403.3 0 389.7 0 375.8 0C362 0 348 0 334 0C320 0 306 0 292 0C278 0 264 0 250.2 0C236.3 0 222.7 0 208.8 0C195 0 181 0 167 0C153 0 139 0 125 0C111 0 97 0 83.2 0C69.3 0 55.7 0 41.8 0C28 0 14 0 7 0L0 0Z" fill="#684ee3"></path><path d="M0 8L7 11C14 14 28 20 41.8 23.5C55.7 27 69.3 28 83.2 25C97 22 111 15 125 11C139 7 153 6 167 6.2C181 6.3 195 7.7 208.8 7.5C222.7 7.3 236.3 5.7 250.2 6.7C264 7.7 278 11.3 292 12.5C306 13.7 320 12.3 334 12C348 11.7 362 12.3 375.8 14.3C389.7 16.3 403.3 19.7 417.2 22.2C431 24.7 445 26.3 459 27.2C473 28 487 28 501 26.3C515 24.7 529 21.3 542.8 21.2C556.7 21 570.3 24 584.2 23.3C598 22.7 612 18.3 626 16.8C640 15.3 654 16.7 668 15.7C682 14.7 696 11.3 709.8 12.2C723.7 13 737.3 18 751.2 18C765 18 779 13 793 12.8C807 12.7 821 17.3 835 20.2C849 23 863 24 876.8 24.2C890.7 24.3 904.3 23.7 918.2 21.2C932 18.7 946 14.3 953 12.2L960 10L960 0L953 0C946 0 932 0 918.2 0C904.3 0 890.7 0 876.8 0C863 0 849 0 835 0C821 0 807 0 793 0C779 0 765 0 751.2 0C737.3 0 723.7 0 709.8 0C696 0 682 0 668 0C654 0 640 0 626 0C612 0 598 0 584.2 0C570.3 0 556.7 0 542.8 0C529 0 515 0 501 0C487 0 473 0 459 0C445 0 431 0 417.2 0C403.3 0 389.7 0 375.8 0C362 0 348 0 334 0C320 0 306 0 292 0C278 0 264 0 250.2 0C236.3 0 222.7 0 208.8 0C195 0 181 0 167 0C153 0 139 0 125 0C111 0 97 0 83.2 0C69.3 0 55.7 0 41.8 0C28 0 14 0 7 0L0 0Z" fill="#3c31dd"></path></svg>