<svg id="visual" viewBox="0 0 960 100" width="960" height="100" xmlns="http://www.w3.org/2000/svg" xmlns:xlink="http://www.w3.org/1999/xlink" version="1.1"><rect x="0" y="0" width="960" height="100" fill="#202731"></rect><path d="M0 29L10.7 32.8C21.3 36.7 42.7 44.3 64 46C85.3 47.7 106.7 43.3 128 39.5C149.3 35.7 170.7 32.3 192 33C213.3 33.7 234.7 38.3 256 40.7C277.3 43 298.7 43 320 44.2C341.3 45.3 362.7 47.7 384 47C405.3 46.3 426.7 42.7 448 42.7C469.3 42.7 490.7 46.3 512 46.3C533.3 46.3 554.7 42.7 576 41.8C597.3 41 618.7 43 640 44.3C661.3 45.7 682.7 46.3 704 47.7C725.3 49 746.7 51 768 51.5C789.3 52 810.7 51 832 49.3C853.3 47.7 874.7 45.3 896 44.3C917.3 43.3 938.7 43.7 949.3 43.8L960 44L960 101L949.3 101C938.7 101 917.3 101 896 101C874.7 101 853.3 101 832 101C810.7 101 789.3 101 768 101C746.7 101 725.3 101 704 101C682.7 101 661.3 101 640 101C618.7 101 597.3 101 576 101C554.7 101 533.3 101 512 101C490.7 101 469.3 101 448 101C426.7 101 405.3 101 384 101C362.7 101 341.3 101 320 101C298.7 101 277.3 101 256 101C234.7 101 213.3 101 192 101C170.7 101 149.3 101 128 101C106.7 101 85.3 101 64 101C42.7 101 21.3 101 10.7 101L0 101Z" fill="#202731"></path><path d="M0 55L10.7 55.3C21.3 55.7 42.7 56.3 64 54.7C85.3 53 106.7 49 128 45.7C149.3 42.3 170.7 39.7 192 39.3C213.3 39 234.7 41 256 42.3C277.3 43.7 298.7 44.3 320 46C341.3 47.7 362.7 50.3 384 52.2C405.3 54 426.7 55 448 54C469.3 53 490.7 50 512 47.3C533.3 44.7 554.7 42.3 576 41.2C597.3 40 618.7 40 640 42.8C661.3 45.7 682.7 51.3 704 51.2C725.3 51 746.7 45 768 44.2C789.3 43.3 810.7 47.7 832 49.5C853.3 51.3 874.7 50.7 896 50.7C917.3 50.7 938.7 51.3 949.3 51.7L960 52L960 101L949.3 101C938.7 101 917.3 101 896 101C874.7 101 853.3 101 832 101C810.7 101 789.3 101 768 101C746.7 101 725.3 101 704 101C682.7 101 661.3 101 640 101C618.7 101 597.3 101 576 101C554.7 101 533.3 101 512 101C490.7 101 469.3 101 448 101C426.7 101 405.3 101 384 101C362.7 101 341.3 101 320 101C298.7 101 277.3 101 256 101C234.7 101 213.3 101 192 101C170.7 101 149.3 101 128 101C106.7 101 85.3 101 64 101C42.7 101 21.3 101 10.7 101L0 101Z" fill="#2b3246"></path><path d="M0 56L10.7 56.2C21.3 56.3 42.7 56.7 64 56.8C85.3 57 106.7 57 128 57.7C149.3 58.3 170.7 59.7 192 57.8C213.3 56 234.7 51 256 48.5C277.3 46 298.7 46 320 45.5C341.3 45 362.7 44 384 44.2C405.3 44.3 426.7 45.7 448 45.7C469.3 45.7 490.7 44.3 512 46.2C533.3 48 554.7 53 576 55.3C597.3 57.7 618.7 57.3 640 55.3C661.3 53.3 682.7 49.7 704 49.5C725.3 49.3 746.7 52.7 768 54.8C789.3 57 810.7 58 832 57.3C853.3 56.7 874.7 54.3 896 54.5C917.3 54.7 938.7 57.3 949.3 58.7L960 60L960 101L949.3 101C938.7 101 917.3 101 896 101C874.7 101 853.3 101 832 101C810.7 101 789.3 101 768 101C746.7 101 725.3 101 704 101C682.7 101 661.3 101 640 101C618.7 101 597.3 101 576 101C554.7 101 533.3 101 512 101C490.7 101 469.3 101 448 101C426.7 101 405.3 101 384 101C362.7 101 341.3 101 320 101C298.7 101 277.3 101 256 101C234.7 101 213.3 101 192 101C170.7 101 149.3 101 128 101C106.7 101 85.3 101 64 101C42.7 101 21.3 101 10.7 101L0 101Z" fill="#3c3b59"></path><path d="M0 66L10.7 63C21.3 60 42.7 54 64 53.5C85.3 53 106.7 58 128 58.5C149.3 59 170.7 55 192 54C213.3 53 234.7 55 256 57C277.3 59 298.7 61 320 60.8C341.3 60.7 362.7 58.3 384 57.3C405.3 56.3 426.7 56.7 448 56.7C469.3 56.7 490.7 56.3 512 56.7C533.3 57 554.7 58 576 57.8C597.3 57.7 618.7 56.3 640 55.5C661.3 54.7 682.7 54.3 704 54.5C725.3 54.7 746.7 55.3 768 55.5C789.3 55.7 810.7 55.3 832 56.8C853.3 58.3 874.7 61.7 896 60.7C917.3 59.7 938.7 54.3 949.3 51.7L960 49L960 101L949.3 101C938.7 101 917.3 101 896 101C874.7 101 853.3 101 832 101C810.7 101 789.3 101 768 101C746.7 101 725.3 101 704 101C682.7 101 661.3 101 640 101C618.7 101 597.3 101 576 101C554.7 101 533.3 101 512 101C490.7 101 469.3 101 448 101C426.7 101 405.3 101 384 101C362.7 101 341.3 101 320 101C298.7 101 277.3 101 256 101C234.7 101 213.3 101 192 101C170.7 101 149.3 101 128 101C106.7 101 85.3 101 64 101C42.7 101 21.3 101 10.7 101L0 101Z" fill="#54436a"></path><path d="M0 65L10.7 63.7C21.3 62.3 42.7 59.7 64 60.2C85.3 60.7 106.7 64.3 128 65.8C149.3 67.3 170.7 66.7 192 65C213.3 63.3 234.7 60.7 256 58.8C277.3 57 298.7 56 320 56.2C341.3 56.3 362.7 57.7 384 58.7C405.3 59.7 426.7 60.3 448 59.8C469.3 59.3 490.7 57.7 512 56.8C533.3 56 554.7 56 576 57.7C597.3 59.3 618.7 62.7 640 63.3C661.3 64 682.7 62 704 60C725.3 58 746.7 56 768 56.5C789.3 57 810.7 60 832 60.5C853.3 61 874.7 59 896 60.2C917.3 61.3 938.7 65.7 949.3 67.8L960 70L960 101L949.3 101C938.7 101 917.3 101 896 101C874.7 101 853.3 101 832 101C810.7 101 789.3 101 768 101C746.7 101 725.3 101 704 101C682.7 101 661.3 101 640 101C618.7 101 597.3 101 576 101C554.7 101 533.3 101 512 101C490.7 101 469.3 101 448 101C426.7 101 405.3 101 384 101C362.7 101 341.3 101 320 101C298.7 101 277.3 101 256 101C234.7 101 213.3 101 192 101C170.7 101 149.3 101 128 101C106.7 101 85.3 101 64 101C42.7 101 21.3 101 10.7 101L0 101Z" fill="#704977"></path><path d="M0 68L10.7 67.8C21.3 67.7 42.7 67.3 64 68.2C85.3 69 106.7 71 128 72C149.3 73 170.7 73 192 72C213.3 71 234.7 69 256 67.7C277.3 66.3 298.7 65.7 320 65.2C341.3 64.7 362.7 64.3 384 65.5C405.3 66.7 426.7 69.3 448 69.2C469.3 69 490.7 66 512 66.5C533.3 67 554.7 71 576 70.8C597.3 70.7 618.7 66.3 640 66.3C661.3 66.3 682.7 70.7 704 71C725.3 71.3 746.7 67.7 768 66C789.3 64.3 810.7 64.7 832 66C853.3 67.3 874.7 69.7 896 71C917.3 72.3 938.7 72.7 949.3 72.8L960 73L960 101L949.3 101C938.7 101 917.3 101 896 101C874.7 101 853.3 101 832 101C810.7 101 789.3 101 768 101C746.7 101 725.3 101 704 101C682.7 101 661.3 101 640 101C618.7 101 597.3 101 576 101C554.7 101 533.3 101 512 101C490.7 101 469.3 101 448 101C426.7 101 405.3 101 384 101C362.7 101 341.3 101 320 101C298.7 101 277.3 101 256 101C234.7 101 213.3 101 192 101C170.7 101 149.3 101 128 101C106.7 101 85.3 101 64 101C42.7 101 21.3 101 10.7 101L0 101Z" fill="#8f4d7f"></path><path d="M0 75L10.7 75.5C21.3 76 42.7 77 64 76.5C85.3 76 106.7 74 128 73.3C149.3 72.7 170.7 73.3 192 73C213.3 72.7 234.7 71.3 256 71.8C277.3 72.3 298.7 74.7 320 75.7C341.3 76.7 362.7 76.3 384 75.3C405.3 74.3 426.7 72.7 448 71.5C469.3 70.3 490.7 69.7 512 69.2C533.3 68.7 554.7 68.3 576 68.3C597.3 68.3 618.7 68.7 640 68.7C661.3 68.7 682.7 68.3 704 70C725.3 71.7 746.7 75.3 768 75.5C789.3 75.7 810.7 72.3 832 71.7C853.3 71 874.7 73 896 73.5C917.3 74 938.7 73 949.3 72.5L960 72L960 101L949.3 101C938.7 101 917.3 101 896 101C874.7 101 853.3 101 832 101C810.7 101 789.3 101 768 101C746.7 101 725.3 101 704 101C682.7 101 661.3 101 640 101C618.7 101 597.3 101 576 101C554.7 101 533.3 101 512 101C490.7 101 469.3 101 448 101C426.7 101 405.3 101 384 101C362.7 101 341.3 101 320 101C298.7 101 277.3 101 256 101C234.7 101 213.3 101 192 101C170.7 101 149.3 101 128 101C106.7 101 85.3 101 64 101C42.7 101 21.3 101 10.7 101L0 101Z" fill="#ae5182"></path><path d="M0 83L10.7 82.2C21.3 81.3 42.7 79.7 64 79.3C85.3 79 106.7 80 128 80.7C149.3 81.3 170.7 81.7 192 81.3C213.3 81 234.7 80 256 79.8C277.3 79.7 298.7 80.3 320 81C341.3 81.7 362.7 82.3 384 82.2C405.3 82 426.7 81 448 80.8C469.3 80.7 490.7 81.3 512 80.3C533.3 79.3 554.7 76.7 576 76C597.3 75.3 618.7 76.7 640 78C661.3 79.3 682.7 80.7 704 81.5C725.3 82.3 746.7 82.7 768 82.2C789.3 81.7 810.7 80.3 832 80.2C853.3 80 874.7 81 896 80.3C917.3 79.7 938.7 77.3 949.3 76.2L960 75L960 101L949.3 101C938.7 101 917.3 101 896 101C874.7 101 853.3 101 832 101C810.7 101 789.3 101 768 101C746.7 101 725.3 101 704 101C682.7 101 661.3 101 640 101C618.7 101 597.3 101 576 101C554.7 101 533.3 101 512 101C490.7 101 469.3 101 448 101C426.7 101 405.3 101 384 101C362.7 101 341.3 101 320 101C298.7 101 277.3 101 256 101C234.7 101 213.3 101 192 101C170.7 101 149.3 101 128 101C106.7 101 85.3 101 64 101C42.7 101 21.3 101 10.7 101L0 101Z" fill="#cd557f"></path><path d="M0 82L10.7 82.8C21.3 83.7 42.7 85.3 64 86.3C85.3 87.3 106.7 87.7 128 87.2C149.3 86.7 170.7 85.3 192 84.2C213.3 83 234.7 82 256 81.5C277.3 81 298.7 81 320 81.2C341.3 81.3 362.7 81.7 384 82.7C405.3 83.7 426.7 85.3 448 85.3C469.3 85.3 490.7 83.7 512 82.7C533.3 81.7 554.7 81.3 576 82.3C597.3 83.3 618.7 85.7 640 85.7C661.3 85.7 682.7 83.3 704 83C725.3 82.7 746.7 84.3 768 84.3C789.3 84.3 810.7 82.7 832 83C853.3 83.3 874.7 85.7 896 86C917.3 86.3 938.7 84.7 949.3 83.8L960 83L960 101L949.3 101C938.7 101 917.3 101 896 101C874.7 101 853.3 101 832 101C810.7 101 789.3 101 768 101C746.7 101 725.3 101 704 101C682.7 101 661.3 101 640 101C618.7 101 597.3 101 576 101C554.7 101 533.3 101 512 101C490.7 101 469.3 101 448 101C426.7 101 405.3 101 384 101C362.7 101 341.3 101 320 101C298.7 101 277.3 101 256 101C234.7 101 213.3 101 192 101C170.7 101 149.3 101 128 101C106.7 101 85.3 101 64 101C42.7 101 21.3 101 10.7 101L0 101Z" fill="#e85d76"></path><path d="M0 90L10.7 89.8C21.3 89.7 42.7 89.3 64 89.7C85.3 90 106.7 91 128 91.5C149.3 92 170.7 92 192 91.7C213.3 91.3 234.7 90.7 256 90.3C277.3 90 298.7 90 320 90.2C341.3 90.3 362.7 90.7 384 91C405.3 91.3 426.7 91.7 448 91.8C469.3 92 490.7 92 512 91.8C533.3 91.7 554.7 91.3 576 91.5C597.3 91.7 618.7 92.3 640 92C661.3 91.7 682.7 90.3 704 90C725.3 89.7 746.7 90.3 768 90.7C789.3 91 810.7 91 832 91.2C853.3 91.3 874.7 91.7 896 91.7C917.3 91.7 938.7 91.3 949.3 91.2L960 91L960 101L949.3 101C938.7 101 917.3 101 896 101C874.7 101 853.3 101 832 101C810.7 101 789.3 101 768 101C746.7 101 725.3 101 704 101C682.7 101 661.3 101 640 101C618.7 101 597.3 101 576 101C554.7 101 533.3 101 512 101C490.7 101 469.3 101 448 101C426.7 101 405.3 101 384 101C362.7 101 341.3 101 320 101C298.7 101 277.3 101 256 101C234.7 101 213.3 101 192 101C170.7 101 149.3 101 128 101C106.7 101 85.3 101 64 101C42.7 101 21.3 101 10.7 101L0 101Z" fill="#ff6969"></path></svg>