<svg id="visual" viewBox="0 0 960 200" width="960" height="200" xmlns="http://www.w3.org/2000/svg" xmlns:xlink="http://www.w3.org/1999/xlink" version="1.1"><rect x="0" y="0" width="960" height="200" fill="#000000"></rect><path d="M0 34L7 48.5C14 63 28 92 41.8 110.3C55.7 128.7 69.3 136.3 83.2 141.5C97 146.7 111 149.3 125 150C139 150.7 153 149.3 167 150.7C181 152 195 156 208.8 149.7C222.7 143.3 236.3 126.7 250.2 106.8C264 87 278 64 292 54.5C306 45 320 49 334 64.5C348 80 362 107 375.8 102.8C389.7 98.7 403.3 63.3 417.2 42C431 20.7 445 13.3 459 37.3C473 61.3 487 116.7 501 124.7C515 132.7 529 93.3 542.8 76.7C556.7 60 570.3 66 584.2 61.8C598 57.7 612 43.3 626 48.7C640 54 654 79 668 86.5C682 94 696 84 709.8 85.3C723.7 86.7 737.3 99.3 751.2 99.3C765 99.3 779 86.7 793 89.7C807 92.7 821 111.3 835 119.5C849 127.7 863 125.3 876.8 134.3C890.7 143.3 904.3 163.7 918.2 147.5C932 131.3 946 78.7 953 52.3L960 26L960 0L953 0C946 0 932 0 918.2 0C904.3 0 890.7 0 876.8 0C863 0 849 0 835 0C821 0 807 0 793 0C779 0 765 0 751.2 0C737.3 0 723.7 0 709.8 0C696 0 682 0 668 0C654 0 640 0 626 0C612 0 598 0 584.2 0C570.3 0 556.7 0 542.8 0C529 0 515 0 501 0C487 0 473 0 459 0C445 0 431 0 417.2 0C403.3 0 389.7 0 375.8 0C362 0 348 0 334 0C320 0 306 0 292 0C278 0 264 0 250.2 0C236.3 0 222.7 0 208.8 0C195 0 181 0 167 0C153 0 139 0 125 0C111 0 97 0 83.2 0C69.3 0 55.7 0 41.8 0C28 0 14 0 7 0L0 0Z" fill="#000000"></path><path d="M0 159L7 148.5C14 138 28 117 41.8 118.2C55.7 119.3 69.3 142.7 83.2 148.5C97 154.3 111 142.7 125 126C139 109.3 153 87.7 167 80.2C181 72.7 195 79.3 208.8 89.2C222.7 99 236.3 112 250.2 107.5C264 103 278 81 292 76.7C306 72.3 320 85.7 334 78C348 70.3 362 41.7 375.8 37C389.7 32.3 403.3 51.7 417.2 78C431 104.3 445 137.7 459 154.5C473 171.3 487 171.7 501 147.2C515 122.7 529 73.3 542.8 68.7C556.7 64 570.3 104 584.2 128.5C598 153 612 162 626 143C640 124 654 77 668 71.5C682 66 696 102 709.8 119.5C723.7 137 737.3 136 751.2 126.5C765 117 779 99 793 99.8C807 100.7 821 120.3 835 114C849 107.7 863 75.3 876.8 72.5C890.7 69.7 904.3 96.3 918.2 105.2C932 114 946 105 953 100.5L960 96L960 0L953 0C946 0 932 0 918.2 0C904.3 0 890.7 0 876.8 0C863 0 849 0 835 0C821 0 807 0 793 0C779 0 765 0 751.2 0C737.3 0 723.7 0 709.8 0C696 0 682 0 668 0C654 0 640 0 626 0C612 0 598 0 584.2 0C570.3 0 556.7 0 542.8 0C529 0 515 0 501 0C487 0 473 0 459 0C445 0 431 0 417.2 0C403.3 0 389.7 0 375.8 0C362 0 348 0 334 0C320 0 306 0 292 0C278 0 264 0 250.2 0C236.3 0 222.7 0 208.8 0C195 0 181 0 167 0C153 0 139 0 125 0C111 0 97 0 83.2 0C69.3 0 55.7 0 41.8 0C28 0 14 0 7 0L0 0Z" fill="#000615"></path><path d="M0 51L7 47.8C14 44.7 28 38.3 41.8 49.3C55.7 60.3 69.3 88.7 83.2 91.2C97 93.7 111 70.3 125 63.5C139 56.7 153 66.3 167 80.3C181 94.3 195 112.7 208.8 121.2C222.7 129.7 236.3 128.3 250.2 114.2C264 100 278 73 292 55.7C306 38.3 320 30.7 334 31.5C348 32.3 362 41.7 375.8 61.5C389.7 81.3 403.3 111.7 417.2 127.7C431 143.7 445 145.3 459 135.7C473 126 487 105 501 94.8C515 84.7 529 85.3 542.8 74.7C556.7 64 570.3 42 584.2 31C598 20 612 20 626 18.8C640 17.7 654 15.3 668 34.5C682 53.7 696 94.3 709.8 113.2C723.7 132 737.3 129 751.2 107.2C765 85.3 779 44.7 793 28.2C807 11.7 821 19.3 835 42.8C849 66.3 863 105.7 876.8 115C890.7 124.3 904.3 103.7 918.2 80.5C932 57.3 946 31.7 953 18.8L960 6L960 0L953 0C946 0 932 0 918.2 0C904.3 0 890.7 0 876.8 0C863 0 849 0 835 0C821 0 807 0 793 0C779 0 765 0 751.2 0C737.3 0 723.7 0 709.8 0C696 0 682 0 668 0C654 0 640 0 626 0C612 0 598 0 584.2 0C570.3 0 556.7 0 542.8 0C529 0 515 0 501 0C487 0 473 0 459 0C445 0 431 0 417.2 0C403.3 0 389.7 0 375.8 0C362 0 348 0 334 0C320 0 306 0 292 0C278 0 264 0 250.2 0C236.3 0 222.7 0 208.8 0C195 0 181 0 167 0C153 0 139 0 125 0C111 0 97 0 83.2 0C69.3 0 55.7 0 41.8 0C28 0 14 0 7 0L0 0Z" fill="#010b18"></path><path d="M0 68L7 57C14 46 28 24 41.8 26.7C55.7 29.3 69.3 56.7 83.2 73.5C97 90.3 111 96.7 125 83.3C139 70 153 37 167 19.8C181 2.7 195 1.3 208.8 15C222.7 28.7 236.3 57.3 250.2 77.3C264 97.3 278 108.7 292 109.7C306 110.7 320 101.3 334 89.2C348 77 362 62 375.8 50.8C389.7 39.7 403.3 32.3 417.2 26.2C431 20 445 15 459 27C473 39 487 68 501 73.3C515 78.7 529 60.3 542.8 53.5C556.7 46.7 570.3 51.3 584.2 53C598 54.7 612 53.3 626 62C640 70.7 654 89.3 668 104.2C682 119 696 130 709.8 112.3C723.7 94.7 737.3 48.3 751.2 40.8C765 33.3 779 64.7 793 65.8C807 67 821 38 835 32.2C849 26.3 863 43.7 876.8 61.3C890.7 79 904.3 97 918.2 104.2C932 111.3 946 107.7 953 105.8L960 104L960 0L953 0C946 0 932 0 918.2 0C904.3 0 890.7 0 876.8 0C863 0 849 0 835 0C821 0 807 0 793 0C779 0 765 0 751.2 0C737.3 0 723.7 0 709.8 0C696 0 682 0 668 0C654 0 640 0 626 0C612 0 598 0 584.2 0C570.3 0 556.7 0 542.8 0C529 0 515 0 501 0C487 0 473 0 459 0C445 0 431 0 417.2 0C403.3 0 389.7 0 375.8 0C362 0 348 0 334 0C320 0 306 0 292 0C278 0 264 0 250.2 0C236.3 0 222.7 0 208.8 0C195 0 181 0 167 0C153 0 139 0 125 0C111 0 97 0 83.2 0C69.3 0 55.7 0 41.8 0C28 0 14 0 7 0L0 0Z" fill="#060f1a"></path><path d="M0 116L7 118C14 120 28 124 41.8 121.5C55.7 119 69.3 110 83.2 93.5C97 77 111 53 125 55C139 57 153 85 167 84.3C181 83.7 195 54.3 208.8 44.2C222.7 34 236.3 43 250.2 52.3C264 61.7 278 71.3 292 79.7C306 88 320 95 334 94.7C348 94.3 362 86.7 375.8 81.8C389.7 77 403.3 75 417.2 83C431 91 445 109 459 112.3C473 115.7 487 104.3 501 89.3C515 74.3 529 55.7 542.8 52.7C556.7 49.7 570.3 62.3 584.2 69.8C598 77.3 612 79.7 626 88.7C640 97.7 654 113.3 668 121.5C682 129.7 696 130.3 709.8 119.7C723.7 109 737.3 87 751.2 86.3C765 85.7 779 106.3 793 105.7C807 105 821 83 835 74C849 65 863 69 876.8 66C890.7 63 904.3 53 918.2 50.7C932 48.3 946 53.7 953 56.3L960 59L960 0L953 0C946 0 932 0 918.2 0C904.3 0 890.7 0 876.8 0C863 0 849 0 835 0C821 0 807 0 793 0C779 0 765 0 751.2 0C737.3 0 723.7 0 709.8 0C696 0 682 0 668 0C654 0 640 0 626 0C612 0 598 0 584.2 0C570.3 0 556.7 0 542.8 0C529 0 515 0 501 0C487 0 473 0 459 0C445 0 431 0 417.2 0C403.3 0 389.7 0 375.8 0C362 0 348 0 334 0C320 0 306 0 292 0C278 0 264 0 250.2 0C236.3 0 222.7 0 208.8 0C195 0 181 0 167 0C153 0 139 0 125 0C111 0 97 0 83.2 0C69.3 0 55.7 0 41.8 0C28 0 14 0 7 0L0 0Z" fill="#0b121d"></path><path d="M0 77L7 77.5C14 78 28 79 41.8 86.3C55.7 93.7 69.3 107.3 83.2 110.7C97 114 111 107 125 102.7C139 98.3 153 96.7 167 87.5C181 78.3 195 61.7 208.8 52.2C222.7 42.7 236.3 40.3 250.2 46C264 51.7 278 65.3 292 63.8C306 62.3 320 45.7 334 49.2C348 52.7 362 76.3 375.8 75C389.7 73.7 403.3 47.3 417.2 45.2C431 43 445 65 459 69.7C473 74.3 487 61.7 501 56.3C515 51 529 53 542.8 51.5C556.7 50 570.3 45 584.2 51.5C598 58 612 76 626 73C640 70 654 46 668 43.2C682 40.3 696 58.7 709.8 68.7C723.7 78.7 737.3 80.3 751.2 71C765 61.7 779 41.3 793 33.5C807 25.7 821 30.3 835 47C849 63.7 863 92.3 876.8 88.8C890.7 85.3 904.3 49.7 918.2 44C932 38.3 946 62.7 953 74.8L960 87L960 0L953 0C946 0 932 0 918.2 0C904.3 0 890.7 0 876.8 0C863 0 849 0 835 0C821 0 807 0 793 0C779 0 765 0 751.2 0C737.3 0 723.7 0 709.8 0C696 0 682 0 668 0C654 0 640 0 626 0C612 0 598 0 584.2 0C570.3 0 556.7 0 542.8 0C529 0 515 0 501 0C487 0 473 0 459 0C445 0 431 0 417.2 0C403.3 0 389.7 0 375.8 0C362 0 348 0 334 0C320 0 306 0 292 0C278 0 264 0 250.2 0C236.3 0 222.7 0 208.8 0C195 0 181 0 167 0C153 0 139 0 125 0C111 0 97 0 83.2 0C69.3 0 55.7 0 41.8 0C28 0 14 0 7 0L0 0Z" fill="#0e1620"></path><path d="M0 75L7 79C14 83 28 91 41.8 86.7C55.7 82.3 69.3 65.7 83.2 56.7C97 47.7 111 46.3 125 48C139 49.7 153 54.3 167 51C181 47.7 195 36.3 208.8 38.5C222.7 40.7 236.3 56.3 250.2 54.8C264 53.3 278 34.7 292 26.7C306 18.7 320 21.3 334 25.5C348 29.7 362 35.3 375.8 37.8C389.7 40.3 403.3 39.7 417.2 47.8C431 56 445 73 459 83.5C473 94 487 98 501 88.2C515 78.3 529 54.7 542.8 41.5C556.7 28.3 570.3 25.7 584.2 25.7C598 25.7 612 28.3 626 28.8C640 29.3 654 27.7 668 39.3C682 51 696 76 709.8 87.7C723.7 99.3 737.3 97.7 751.2 95.7C765 93.7 779 91.3 793 92.8C807 94.3 821 99.7 835 90.3C849 81 863 57 876.8 43.3C890.7 29.7 904.3 26.3 918.2 28.2C932 30 946 37 953 40.5L960 44L960 0L953 0C946 0 932 0 918.2 0C904.3 0 890.7 0 876.8 0C863 0 849 0 835 0C821 0 807 0 793 0C779 0 765 0 751.2 0C737.3 0 723.7 0 709.8 0C696 0 682 0 668 0C654 0 640 0 626 0C612 0 598 0 584.2 0C570.3 0 556.7 0 542.8 0C529 0 515 0 501 0C487 0 473 0 459 0C445 0 431 0 417.2 0C403.3 0 389.7 0 375.8 0C362 0 348 0 334 0C320 0 306 0 292 0C278 0 264 0 250.2 0C236.3 0 222.7 0 208.8 0C195 0 181 0 167 0C153 0 139 0 125 0C111 0 97 0 83.2 0C69.3 0 55.7 0 41.8 0C28 0 14 0 7 0L0 0Z" fill="#111822"></path><path d="M0 48L7 43.8C14 39.7 28 31.3 41.8 37.8C55.7 44.3 69.3 65.7 83.2 69.7C97 73.7 111 60.3 125 53.5C139 46.7 153 46.3 167 51.7C181 57 195 68 208.8 61.3C222.7 54.7 236.3 30.3 250.2 24C264 17.7 278 29.3 292 30.3C306 31.3 320 21.7 334 29.5C348 37.3 362 62.7 375.8 72.8C389.7 83 403.3 78 417.2 66.3C431 54.7 445 36.3 459 31.5C473 26.7 487 35.3 501 33.2C515 31 529 18 542.8 23.2C556.7 28.3 570.3 51.7 584.2 60C598 68.3 612 61.7 626 50.2C640 38.7 654 22.3 668 20C682 17.7 696 29.3 709.8 30.2C723.7 31 737.3 21 751.2 16.8C765 12.7 779 14.3 793 24.7C807 35 821 54 835 63.8C849 73.7 863 74.3 876.8 70.2C890.7 66 904.3 57 918.2 47.8C932 38.7 946 29.3 953 24.7L960 20L960 0L953 0C946 0 932 0 918.2 0C904.3 0 890.7 0 876.8 0C863 0 849 0 835 0C821 0 807 0 793 0C779 0 765 0 751.2 0C737.3 0 723.7 0 709.8 0C696 0 682 0 668 0C654 0 640 0 626 0C612 0 598 0 584.2 0C570.3 0 556.7 0 542.8 0C529 0 515 0 501 0C487 0 473 0 459 0C445 0 431 0 417.2 0C403.3 0 389.7 0 375.8 0C362 0 348 0 334 0C320 0 306 0 292 0C278 0 264 0 250.2 0C236.3 0 222.7 0 208.8 0C195 0 181 0 167 0C153 0 139 0 125 0C111 0 97 0 83.2 0C69.3 0 55.7 0 41.8 0C28 0 14 0 7 0L0 0Z" fill="#141b25"></path><path d="M0 66L7 60C14 54 28 42 41.8 32.8C55.7 23.7 69.3 17.3 83.2 16.7C97 16 111 21 125 21.3C139 21.7 153 17.3 167 24.7C181 32 195 51 208.8 50C222.7 49 236.3 28 250.2 22.8C264 17.7 278 28.3 292 34.8C306 41.3 320 43.7 334 41.2C348 38.7 362 31.3 375.8 28C389.7 24.7 403.3 25.3 417.2 21.5C431 17.7 445 9.3 459 12C473 14.7 487 28.3 501 30.2C515 32 529 22 542.8 18.5C556.7 15 570.3 18 584.2 23.3C598 28.7 612 36.3 626 37.5C640 38.7 654 33.3 668 30.7C682 28 696 28 709.8 28.2C723.7 28.3 737.3 28.7 751.2 29.5C765 30.3 779 31.7 793 28.8C807 26 821 19 835 18.2C849 17.3 863 22.7 876.8 23.8C890.7 25 904.3 22 918.2 29.5C932 37 946 55 953 64L960 73L960 0L953 0C946 0 932 0 918.2 0C904.3 0 890.7 0 876.8 0C863 0 849 0 835 0C821 0 807 0 793 0C779 0 765 0 751.2 0C737.3 0 723.7 0 709.8 0C696 0 682 0 668 0C654 0 640 0 626 0C612 0 598 0 584.2 0C570.3 0 556.7 0 542.8 0C529 0 515 0 501 0C487 0 473 0 459 0C445 0 431 0 417.2 0C403.3 0 389.7 0 375.8 0C362 0 348 0 334 0C320 0 306 0 292 0C278 0 264 0 250.2 0C236.3 0 222.7 0 208.8 0C195 0 181 0 167 0C153 0 139 0 125 0C111 0 97 0 83.2 0C69.3 0 55.7 0 41.8 0C28 0 14 0 7 0L0 0Z" fill="#171e28"></path><path d="M0 26L7 23.3C14 20.7 28 15.3 41.8 14.2C55.7 13 69.3 16 83.2 21.8C97 27.7 111 36.3 125 41.5C139 46.7 153 48.3 167 48C181 47.7 195 45.3 208.8 37.2C222.7 29 236.3 15 250.2 8.7C264 2.3 278 3.7 292 4.3C306 5 320 5 334 10.8C348 16.7 362 28.3 375.8 30.8C389.7 33.3 403.3 26.7 417.2 29.5C431 32.3 445 44.7 459 51.3C473 58 487 59 501 51.7C515 44.3 529 28.7 542.8 26.2C556.7 23.7 570.3 34.3 584.2 37C598 39.7 612 34.3 626 34.8C640 35.3 654 41.7 668 40.8C682 40 696 32 709.8 32.5C723.7 33 737.3 42 751.2 47.5C765 53 779 55 793 47C807 39 821 21 835 13.7C849 6.3 863 9.7 876.8 14.5C890.7 19.3 904.3 25.7 918.2 32.2C932 38.7 946 45.3 953 48.7L960 52L960 0L953 0C946 0 932 0 918.2 0C904.3 0 890.7 0 876.8 0C863 0 849 0 835 0C821 0 807 0 793 0C779 0 765 0 751.2 0C737.3 0 723.7 0 709.8 0C696 0 682 0 668 0C654 0 640 0 626 0C612 0 598 0 584.2 0C570.3 0 556.7 0 542.8 0C529 0 515 0 501 0C487 0 473 0 459 0C445 0 431 0 417.2 0C403.3 0 389.7 0 375.8 0C362 0 348 0 334 0C320 0 306 0 292 0C278 0 264 0 250.2 0C236.3 0 222.7 0 208.8 0C195 0 181 0 167 0C153 0 139 0 125 0C111 0 97 0 83.2 0C69.3 0 55.7 0 41.8 0C28 0 14 0 7 0L0 0Z" fill="#1a212b"></path><path d="M0 42L7 42.2C14 42.3 28 42.7 41.8 40.5C55.7 38.3 69.3 33.7 83.2 29.5C97 25.3 111 21.7 125 18.3C139 15 153 12 167 11.7C181 11.3 195 13.7 208.8 14.7C222.7 15.7 236.3 15.3 250.2 13.8C264 12.3 278 9.7 292 12.5C306 15.3 320 23.7 334 23.3C348 23 362 14 375.8 9.5C389.7 5 403.3 5 417.2 10.8C431 16.7 445 28.3 459 29.8C473 31.3 487 22.7 501 20.8C515 19 529 24 542.8 25.5C556.7 27 570.3 25 584.2 22.7C598 20.3 612 17.7 626 17.3C640 17 654 19 668 24C682 29 696 37 709.8 38.7C723.7 40.3 737.3 35.7 751.2 29.7C765 23.7 779 16.3 793 17.5C807 18.7 821 28.3 835 30.2C849 32 863 26 876.8 20.7C890.7 15.3 904.3 10.7 918.2 10.2C932 9.7 946 13.3 953 15.2L960 17L960 0L953 0C946 0 932 0 918.2 0C904.3 0 890.7 0 876.8 0C863 0 849 0 835 0C821 0 807 0 793 0C779 0 765 0 751.2 0C737.3 0 723.7 0 709.8 0C696 0 682 0 668 0C654 0 640 0 626 0C612 0 598 0 584.2 0C570.3 0 556.7 0 542.8 0C529 0 515 0 501 0C487 0 473 0 459 0C445 0 431 0 417.2 0C403.3 0 389.7 0 375.8 0C362 0 348 0 334 0C320 0 306 0 292 0C278 0 264 0 250.2 0C236.3 0 222.7 0 208.8 0C195 0 181 0 167 0C153 0 139 0 125 0C111 0 97 0 83.2 0C69.3 0 55.7 0 41.8 0C28 0 14 0 7 0L0 0Z" fill="#1d242e"></path><path d="M0 0L7 1.5C14 3 28 6 41.8 6.2C55.7 6.3 69.3 3.7 83.2 6.2C97 8.7 111 16.3 125 20.7C139 25 153 26 167 22C181 18 195 9 208.8 4.8C222.7 0.7 236.3 1.3 250.2 5.2C264 9 278 16 292 17.8C306 19.7 320 16.3 334 17C348 17.7 362 22.3 375.8 21.5C389.7 20.7 403.3 14.3 417.2 9.8C431 5.3 445 2.7 459 4.2C473 5.7 487 11.3 501 15.8C515 20.3 529 23.7 542.8 21.5C556.7 19.3 570.3 11.7 584.2 11.7C598 11.7 612 19.3 626 21.3C640 23.3 654 19.7 668 16.2C682 12.7 696 9.3 709.8 9.8C723.7 10.3 737.3 14.7 751.2 16C765 17.3 779 15.7 793 15.5C807 15.3 821 16.7 835 15C849 13.3 863 8.7 876.8 6.2C890.7 3.7 904.3 3.3 918.2 5.3C932 7.3 946 11.7 953 13.8L960 16L960 0L953 0C946 0 932 0 918.2 0C904.3 0 890.7 0 876.8 0C863 0 849 0 835 0C821 0 807 0 793 0C779 0 765 0 751.2 0C737.3 0 723.7 0 709.8 0C696 0 682 0 668 0C654 0 640 0 626 0C612 0 598 0 584.2 0C570.3 0 556.7 0 542.8 0C529 0 515 0 501 0C487 0 473 0 459 0C445 0 431 0 417.2 0C403.3 0 389.7 0 375.8 0C362 0 348 0 334 0C320 0 306 0 292 0C278 0 264 0 250.2 0C236.3 0 222.7 0 208.8 0C195 0 181 0 167 0C153 0 139 0 125 0C111 0 97 0 83.2 0C69.3 0 55.7 0 41.8 0C28 0 14 0 7 0L0 0Z" fill="#202731"></path></svg>