<svg id="visual" viewBox="0 0 960 100" width="960" height="100" xmlns="http://www.w3.org/2000/svg" xmlns:xlink="http://www.w3.org/1999/xlink" version="1.1"><rect x="0" y="0" width="960" height="100" fill="#3c31dd"></rect><path d="M0 86L7 87.5C14 89 28 92 41.8 92.2C55.7 92.3 69.3 89.7 83.2 88.3C97 87 111 87 125 86.7C139 86.3 153 85.7 167 86C181 86.3 195 87.7 208.8 89C222.7 90.3 236.3 91.7 250.2 91.2C264 90.7 278 88.3 292 89C306 89.7 320 93.3 334 95.3C348 97.3 362 97.7 375.8 98C389.7 98.3 403.3 98.7 417.2 96.5C431 94.3 445 89.7 459 87.5C473 85.3 487 85.7 501 85.8C515 86 529 86 542.8 86C556.7 86 570.3 86 584.2 87.7C598 89.3 612 92.7 626 93.8C640 95 654 94 668 93.3C682 92.7 696 92.3 709.8 92.3C723.7 92.3 737.3 92.7 751.2 93C765 93.3 779 93.7 793 94.3C807 95 821 96 835 94.8C849 93.7 863 90.3 876.8 89.7C890.7 89 904.3 91 918.2 90.5C932 90 946 87 953 85.5L960 84L960 0L953 0C946 0 932 0 918.2 0C904.3 0 890.7 0 876.8 0C863 0 849 0 835 0C821 0 807 0 793 0C779 0 765 0 751.2 0C737.3 0 723.7 0 709.8 0C696 0 682 0 668 0C654 0 640 0 626 0C612 0 598 0 584.2 0C570.3 0 556.7 0 542.8 0C529 0 515 0 501 0C487 0 473 0 459 0C445 0 431 0 417.2 0C403.3 0 389.7 0 375.8 0C362 0 348 0 334 0C320 0 306 0 292 0C278 0 264 0 250.2 0C236.3 0 222.7 0 208.8 0C195 0 181 0 167 0C153 0 139 0 125 0C111 0 97 0 83.2 0C69.3 0 55.7 0 41.8 0C28 0 14 0 7 0L0 0Z" fill="#3c31dd"></path><path d="M0 85L7 85.7C14 86.3 28 87.7 41.8 86.7C55.7 85.7 69.3 82.3 83.2 80.3C97 78.3 111 77.7 125 78.7C139 79.7 153 82.3 167 84C181 85.7 195 86.3 208.8 86C222.7 85.7 236.3 84.3 250.2 84.5C264 84.7 278 86.3 292 85.7C306 85 320 82 334 80.3C348 78.7 362 78.3 375.8 79.3C389.7 80.3 403.3 82.7 417.2 82.8C431 83 445 81 459 80.5C473 80 487 81 501 82.5C515 84 529 86 542.8 87C556.7 88 570.3 88 584.2 86.5C598 85 612 82 626 81.2C640 80.3 654 81.7 668 82.2C682 82.7 696 82.3 709.8 81.5C723.7 80.7 737.3 79.3 751.2 80.5C765 81.7 779 85.3 793 85.7C807 86 821 83 835 82.7C849 82.3 863 84.7 876.8 84.8C890.7 85 904.3 83 918.2 81.3C932 79.7 946 78.3 953 77.7L960 77L960 0L953 0C946 0 932 0 918.2 0C904.3 0 890.7 0 876.8 0C863 0 849 0 835 0C821 0 807 0 793 0C779 0 765 0 751.2 0C737.3 0 723.7 0 709.8 0C696 0 682 0 668 0C654 0 640 0 626 0C612 0 598 0 584.2 0C570.3 0 556.7 0 542.8 0C529 0 515 0 501 0C487 0 473 0 459 0C445 0 431 0 417.2 0C403.3 0 389.7 0 375.8 0C362 0 348 0 334 0C320 0 306 0 292 0C278 0 264 0 250.2 0C236.3 0 222.7 0 208.8 0C195 0 181 0 167 0C153 0 139 0 125 0C111 0 97 0 83.2 0C69.3 0 55.7 0 41.8 0C28 0 14 0 7 0L0 0Z" fill="#7524d2"></path><path d="M0 78L7 78C14 78 28 78 41.8 77.7C55.7 77.3 69.3 76.7 83.2 76.7C97 76.7 111 77.3 125 77.3C139 77.3 153 76.7 167 76.3C181 76 195 76 208.8 74.8C222.7 73.7 236.3 71.3 250.2 72C264 72.7 278 76.3 292 78.5C306 80.7 320 81.3 334 79.8C348 78.3 362 74.7 375.8 73.7C389.7 72.7 403.3 74.3 417.2 76.3C431 78.3 445 80.7 459 80.8C473 81 487 79 501 77.3C515 75.7 529 74.3 542.8 73.7C556.7 73 570.3 73 584.2 74.3C598 75.7 612 78.3 626 79.2C640 80 654 79 668 77.3C682 75.7 696 73.3 709.8 74.2C723.7 75 737.3 79 751.2 80.3C765 81.7 779 80.3 793 78.3C807 76.3 821 73.7 835 72.5C849 71.3 863 71.7 876.8 72.2C890.7 72.7 904.3 73.3 918.2 74C932 74.7 946 75.3 953 75.7L960 76L960 0L953 0C946 0 932 0 918.2 0C904.3 0 890.7 0 876.8 0C863 0 849 0 835 0C821 0 807 0 793 0C779 0 765 0 751.2 0C737.3 0 723.7 0 709.8 0C696 0 682 0 668 0C654 0 640 0 626 0C612 0 598 0 584.2 0C570.3 0 556.7 0 542.8 0C529 0 515 0 501 0C487 0 473 0 459 0C445 0 431 0 417.2 0C403.3 0 389.7 0 375.8 0C362 0 348 0 334 0C320 0 306 0 292 0C278 0 264 0 250.2 0C236.3 0 222.7 0 208.8 0C195 0 181 0 167 0C153 0 139 0 125 0C111 0 97 0 83.2 0C69.3 0 55.7 0 41.8 0C28 0 14 0 7 0L0 0Z" fill="#9814c6"></path><path d="M0 62L7 62C14 62 28 62 41.8 64C55.7 66 69.3 70 83.2 71.2C97 72.3 111 70.7 125 70.7C139 70.7 153 72.3 167 73C181 73.7 195 73.3 208.8 71.3C222.7 69.3 236.3 65.7 250.2 65.8C264 66 278 70 292 72C306 74 320 74 334 72.7C348 71.3 362 68.7 375.8 68.3C389.7 68 403.3 70 417.2 69.2C431 68.3 445 64.7 459 64.5C473 64.3 487 67.7 501 68.7C515 69.7 529 68.3 542.8 68.3C556.7 68.3 570.3 69.7 584.2 70.3C598 71 612 71 626 70C640 69 654 67 668 66.5C682 66 696 67 709.8 67.7C723.7 68.3 737.3 68.7 751.2 68.5C765 68.3 779 67.7 793 66.8C807 66 821 65 835 65.8C849 66.7 863 69.3 876.8 69.7C890.7 70 904.3 68 918.2 66.5C932 65 946 64 953 63.5L960 63L960 0L953 0C946 0 932 0 918.2 0C904.3 0 890.7 0 876.8 0C863 0 849 0 835 0C821 0 807 0 793 0C779 0 765 0 751.2 0C737.3 0 723.7 0 709.8 0C696 0 682 0 668 0C654 0 640 0 626 0C612 0 598 0 584.2 0C570.3 0 556.7 0 542.8 0C529 0 515 0 501 0C487 0 473 0 459 0C445 0 431 0 417.2 0C403.3 0 389.7 0 375.8 0C362 0 348 0 334 0C320 0 306 0 292 0C278 0 264 0 250.2 0C236.3 0 222.7 0 208.8 0C195 0 181 0 167 0C153 0 139 0 125 0C111 0 97 0 83.2 0C69.3 0 55.7 0 41.8 0C28 0 14 0 7 0L0 0Z" fill="#b200b9"></path><path d="M0 62L7 61.2C14 60.3 28 58.7 41.8 59C55.7 59.3 69.3 61.7 83.2 61.7C97 61.7 111 59.3 125 59.8C139 60.3 153 63.7 167 64.5C181 65.3 195 63.7 208.8 63.2C222.7 62.7 236.3 63.3 250.2 63C264 62.7 278 61.3 292 62C306 62.7 320 65.3 334 66.3C348 67.3 362 66.7 375.8 64.5C389.7 62.3 403.3 58.7 417.2 56.8C431 55 445 55 459 56.8C473 58.7 487 62.3 501 63.3C515 64.3 529 62.7 542.8 62.8C556.7 63 570.3 65 584.2 65.5C598 66 612 65 626 63.8C640 62.7 654 61.3 668 60.7C682 60 696 60 709.8 60.7C723.7 61.3 737.3 62.7 751.2 62.7C765 62.7 779 61.3 793 59.8C807 58.3 821 56.7 835 55.8C849 55 863 55 876.8 56.5C890.7 58 904.3 61 918.2 62.7C932 64.3 946 64.7 953 64.8L960 65L960 0L953 0C946 0 932 0 918.2 0C904.3 0 890.7 0 876.8 0C863 0 849 0 835 0C821 0 807 0 793 0C779 0 765 0 751.2 0C737.3 0 723.7 0 709.8 0C696 0 682 0 668 0C654 0 640 0 626 0C612 0 598 0 584.2 0C570.3 0 556.7 0 542.8 0C529 0 515 0 501 0C487 0 473 0 459 0C445 0 431 0 417.2 0C403.3 0 389.7 0 375.8 0C362 0 348 0 334 0C320 0 306 0 292 0C278 0 264 0 250.2 0C236.3 0 222.7 0 208.8 0C195 0 181 0 167 0C153 0 139 0 125 0C111 0 97 0 83.2 0C69.3 0 55.7 0 41.8 0C28 0 14 0 7 0L0 0Z" fill="#c700ad"></path><path d="M0 49L7 49.8C14 50.7 28 52.3 41.8 53.5C55.7 54.7 69.3 55.3 83.2 55.7C97 56 111 56 125 55.7C139 55.3 153 54.7 167 53.7C181 52.7 195 51.3 208.8 52.2C222.7 53 236.3 56 250.2 55.5C264 55 278 51 292 48.8C306 46.7 320 46.3 334 47.7C348 49 362 52 375.8 53C389.7 54 403.3 53 417.2 51.5C431 50 445 48 459 49C473 50 487 54 501 54.8C515 55.7 529 53.3 542.8 51.3C556.7 49.3 570.3 47.7 584.2 48.2C598 48.7 612 51.3 626 53C640 54.7 654 55.3 668 54.7C682 54 696 52 709.8 52.2C723.7 52.3 737.3 54.7 751.2 56.3C765 58 779 59 793 57.7C807 56.3 821 52.7 835 52.5C849 52.3 863 55.7 876.8 55.3C890.7 55 904.3 51 918.2 50.8C932 50.7 946 54.3 953 56.2L960 58L960 0L953 0C946 0 932 0 918.2 0C904.3 0 890.7 0 876.8 0C863 0 849 0 835 0C821 0 807 0 793 0C779 0 765 0 751.2 0C737.3 0 723.7 0 709.8 0C696 0 682 0 668 0C654 0 640 0 626 0C612 0 598 0 584.2 0C570.3 0 556.7 0 542.8 0C529 0 515 0 501 0C487 0 473 0 459 0C445 0 431 0 417.2 0C403.3 0 389.7 0 375.8 0C362 0 348 0 334 0C320 0 306 0 292 0C278 0 264 0 250.2 0C236.3 0 222.7 0 208.8 0C195 0 181 0 167 0C153 0 139 0 125 0C111 0 97 0 83.2 0C69.3 0 55.7 0 41.8 0C28 0 14 0 7 0L0 0Z" fill="#d700a0"></path><path d="M0 42L7 43C14 44 28 46 41.8 45.5C55.7 45 69.3 42 83.2 41.3C97 40.7 111 42.3 125 42.2C139 42 153 40 167 40.8C181 41.7 195 45.3 208.8 47.5C222.7 49.7 236.3 50.3 250.2 50.5C264 50.7 278 50.3 292 49.2C306 48 320 46 334 45C348 44 362 44 375.8 43C389.7 42 403.3 40 417.2 40.7C431 41.3 445 44.7 459 45.8C473 47 487 46 501 46.5C515 47 529 49 542.8 49.7C556.7 50.3 570.3 49.7 584.2 49.3C598 49 612 49 626 48C640 47 654 45 668 45.5C682 46 696 49 709.8 49C723.7 49 737.3 46 751.2 45.5C765 45 779 47 793 46.3C807 45.7 821 42.3 835 41.2C849 40 863 41 876.8 41.3C890.7 41.7 904.3 41.3 918.2 42.2C932 43 946 45 953 46L960 47L960 0L953 0C946 0 932 0 918.2 0C904.3 0 890.7 0 876.8 0C863 0 849 0 835 0C821 0 807 0 793 0C779 0 765 0 751.2 0C737.3 0 723.7 0 709.8 0C696 0 682 0 668 0C654 0 640 0 626 0C612 0 598 0 584.2 0C570.3 0 556.7 0 542.8 0C529 0 515 0 501 0C487 0 473 0 459 0C445 0 431 0 417.2 0C403.3 0 389.7 0 375.8 0C362 0 348 0 334 0C320 0 306 0 292 0C278 0 264 0 250.2 0C236.3 0 222.7 0 208.8 0C195 0 181 0 167 0C153 0 139 0 125 0C111 0 97 0 83.2 0C69.3 0 55.7 0 41.8 0C28 0 14 0 7 0L0 0Z" fill="#e40e94"></path><path d="M0 41L7 40.5C14 40 28 39 41.8 39C55.7 39 69.3 40 83.2 41.2C97 42.3 111 43.7 125 42.7C139 41.7 153 38.3 167 37.2C181 36 195 37 208.8 36.2C222.7 35.3 236.3 32.7 250.2 33C264 33.3 278 36.7 292 38.5C306 40.3 320 40.7 334 39.2C348 37.7 362 34.3 375.8 32.7C389.7 31 403.3 31 417.2 31.3C431 31.7 445 32.3 459 33C473 33.7 487 34.3 501 34.3C515 34.3 529 33.7 542.8 33.3C556.7 33 570.3 33 584.2 34.3C598 35.7 612 38.3 626 38C640 37.7 654 34.3 668 32.7C682 31 696 31 709.8 33C723.7 35 737.3 39 751.2 39.2C765 39.3 779 35.7 793 34.2C807 32.7 821 33.3 835 34.3C849 35.3 863 36.7 876.8 38C890.7 39.3 904.3 40.7 918.2 40C932 39.3 946 36.7 953 35.3L960 34L960 0L953 0C946 0 932 0 918.2 0C904.3 0 890.7 0 876.8 0C863 0 849 0 835 0C821 0 807 0 793 0C779 0 765 0 751.2 0C737.3 0 723.7 0 709.8 0C696 0 682 0 668 0C654 0 640 0 626 0C612 0 598 0 584.2 0C570.3 0 556.7 0 542.8 0C529 0 515 0 501 0C487 0 473 0 459 0C445 0 431 0 417.2 0C403.3 0 389.7 0 375.8 0C362 0 348 0 334 0C320 0 306 0 292 0C278 0 264 0 250.2 0C236.3 0 222.7 0 208.8 0C195 0 181 0 167 0C153 0 139 0 125 0C111 0 97 0 83.2 0C69.3 0 55.7 0 41.8 0C28 0 14 0 7 0L0 0Z" fill="#ee2489"></path><path d="M0 34L7 34.2C14 34.3 28 34.7 41.8 34C55.7 33.3 69.3 31.7 83.2 30.8C97 30 111 30 125 29.2C139 28.3 153 26.7 167 27.7C181 28.7 195 32.3 208.8 34C222.7 35.7 236.3 35.3 250.2 34.3C264 33.3 278 31.7 292 31.5C306 31.3 320 32.7 334 32.8C348 33 362 32 375.8 31.7C389.7 31.3 403.3 31.7 417.2 32.7C431 33.7 445 35.3 459 36C473 36.7 487 36.3 501 35.3C515 34.3 529 32.7 542.8 31.5C556.7 30.3 570.3 29.7 584.2 28.5C598 27.3 612 25.7 626 26.3C640 27 654 30 668 31C682 32 696 31 709.8 31C723.7 31 737.3 32 751.2 30.8C765 29.7 779 26.3 793 26C807 25.7 821 28.3 835 30C849 31.7 863 32.3 876.8 32.5C890.7 32.7 904.3 32.3 918.2 31C932 29.7 946 27.3 953 26.2L960 25L960 0L953 0C946 0 932 0 918.2 0C904.3 0 890.7 0 876.8 0C863 0 849 0 835 0C821 0 807 0 793 0C779 0 765 0 751.2 0C737.3 0 723.7 0 709.8 0C696 0 682 0 668 0C654 0 640 0 626 0C612 0 598 0 584.2 0C570.3 0 556.7 0 542.8 0C529 0 515 0 501 0C487 0 473 0 459 0C445 0 431 0 417.2 0C403.3 0 389.7 0 375.8 0C362 0 348 0 334 0C320 0 306 0 292 0C278 0 264 0 250.2 0C236.3 0 222.7 0 208.8 0C195 0 181 0 167 0C153 0 139 0 125 0C111 0 97 0 83.2 0C69.3 0 55.7 0 41.8 0C28 0 14 0 7 0L0 0Z" fill="#f5377f"></path><path d="M0 27L7 26.8C14 26.7 28 26.3 41.8 24.5C55.7 22.7 69.3 19.3 83.2 17.8C97 16.3 111 16.7 125 17.3C139 18 153 19 167 19C181 19 195 18 208.8 17.2C222.7 16.3 236.3 15.7 250.2 16.3C264 17 278 19 292 19.5C306 20 320 19 334 18.8C348 18.7 362 19.3 375.8 20.3C389.7 21.3 403.3 22.7 417.2 24.2C431 25.7 445 27.3 459 26.5C473 25.7 487 22.3 501 21.3C515 20.3 529 21.7 542.8 23.2C556.7 24.7 570.3 26.3 584.2 25.8C598 25.3 612 22.7 626 21.5C640 20.3 654 20.7 668 21.2C682 21.7 696 22.3 709.8 22.8C723.7 23.3 737.3 23.7 751.2 23.2C765 22.7 779 21.3 793 21.3C807 21.3 821 22.7 835 23C849 23.3 863 22.7 876.8 23.3C890.7 24 904.3 26 918.2 27.2C932 28.3 946 28.7 953 28.8L960 29L960 0L953 0C946 0 932 0 918.2 0C904.3 0 890.7 0 876.8 0C863 0 849 0 835 0C821 0 807 0 793 0C779 0 765 0 751.2 0C737.3 0 723.7 0 709.8 0C696 0 682 0 668 0C654 0 640 0 626 0C612 0 598 0 584.2 0C570.3 0 556.7 0 542.8 0C529 0 515 0 501 0C487 0 473 0 459 0C445 0 431 0 417.2 0C403.3 0 389.7 0 375.8 0C362 0 348 0 334 0C320 0 306 0 292 0C278 0 264 0 250.2 0C236.3 0 222.7 0 208.8 0C195 0 181 0 167 0C153 0 139 0 125 0C111 0 97 0 83.2 0C69.3 0 55.7 0 41.8 0C28 0 14 0 7 0L0 0Z" fill="#fa4976"></path><path d="M0 11L7 11.2C14 11.3 28 11.7 41.8 13.2C55.7 14.7 69.3 17.3 83.2 18.2C97 19 111 18 125 17.5C139 17 153 17 167 17.3C181 17.7 195 18.3 208.8 17.8C222.7 17.3 236.3 15.7 250.2 13.8C264 12 278 10 292 10.7C306 11.3 320 14.7 334 16.8C348 19 362 20 375.8 18.7C389.7 17.3 403.3 13.7 417.2 13.2C431 12.7 445 15.3 459 16.8C473 18.3 487 18.7 501 18.2C515 17.7 529 16.3 542.8 15C556.7 13.7 570.3 12.3 584.2 13C598 13.7 612 16.3 626 17.7C640 19 654 19 668 17.7C682 16.3 696 13.7 709.8 14.2C723.7 14.7 737.3 18.3 751.2 18.7C765 19 779 16 793 15.3C807 14.7 821 16.3 835 17.5C849 18.7 863 19.3 876.8 19C890.7 18.7 904.3 17.3 918.2 17.7C932 18 946 20 953 21L960 22L960 0L953 0C946 0 932 0 918.2 0C904.3 0 890.7 0 876.8 0C863 0 849 0 835 0C821 0 807 0 793 0C779 0 765 0 751.2 0C737.3 0 723.7 0 709.8 0C696 0 682 0 668 0C654 0 640 0 626 0C612 0 598 0 584.2 0C570.3 0 556.7 0 542.8 0C529 0 515 0 501 0C487 0 473 0 459 0C445 0 431 0 417.2 0C403.3 0 389.7 0 375.8 0C362 0 348 0 334 0C320 0 306 0 292 0C278 0 264 0 250.2 0C236.3 0 222.7 0 208.8 0C195 0 181 0 167 0C153 0 139 0 125 0C111 0 97 0 83.2 0C69.3 0 55.7 0 41.8 0C28 0 14 0 7 0L0 0Z" fill="#fe596f"></path><path d="M0 8L7 8.7C14 9.3 28 10.7 41.8 10.7C55.7 10.7 69.3 9.3 83.2 9.7C97 10 111 12 125 12.3C139 12.7 153 11.3 167 10.3C181 9.3 195 8.7 208.8 7C222.7 5.3 236.3 2.7 250.2 1.5C264 0.3 278 0.7 292 2.3C306 4 320 7 334 8C348 9 362 8 375.8 6.3C389.7 4.7 403.3 2.3 417.2 2.5C431 2.7 445 5.3 459 6.3C473 7.3 487 6.7 501 5.3C515 4 529 2 542.8 1.7C556.7 1.3 570.3 2.7 584.2 4.3C598 6 612 8 626 8.7C640 9.3 654 8.7 668 7.8C682 7 696 6 709.8 6.5C723.7 7 737.3 9 751.2 9.5C765 10 779 9 793 8.2C807 7.3 821 6.7 835 6.7C849 6.7 863 7.3 876.8 6.3C890.7 5.3 904.3 2.7 918.2 2.7C932 2.7 946 5.3 953 6.7L960 8L960 0L953 0C946 0 932 0 918.2 0C904.3 0 890.7 0 876.8 0C863 0 849 0 835 0C821 0 807 0 793 0C779 0 765 0 751.2 0C737.3 0 723.7 0 709.8 0C696 0 682 0 668 0C654 0 640 0 626 0C612 0 598 0 584.2 0C570.3 0 556.7 0 542.8 0C529 0 515 0 501 0C487 0 473 0 459 0C445 0 431 0 417.2 0C403.3 0 389.7 0 375.8 0C362 0 348 0 334 0C320 0 306 0 292 0C278 0 264 0 250.2 0C236.3 0 222.7 0 208.8 0C195 0 181 0 167 0C153 0 139 0 125 0C111 0 97 0 83.2 0C69.3 0 55.7 0 41.8 0C28 0 14 0 7 0L0 0Z" fill="#ff6969"></path></svg>