<svg id="visual" viewBox="0 0 960 100" width="960" height="100" xmlns="http://www.w3.org/2000/svg" xmlns:xlink="http://www.w3.org/1999/xlink" version="1.1"><rect x="0" y="0" width="960" height="100" fill="#3c31dd"></rect><path d="M0 56L7 51.3C14 46.7 28 37.3 41.8 31C55.7 24.7 69.3 21.3 83.2 26.8C97 32.3 111 46.7 125 50.7C139 54.7 153 48.3 167 53C181 57.7 195 73.3 208.8 73.2C222.7 73 236.3 57 250.2 48.8C264 40.7 278 40.3 292 41.8C306 43.3 320 46.7 334 43C348 39.3 362 28.7 375.8 29.8C389.7 31 403.3 44 417.2 42C431 40 445 23 459 14.5C473 6 487 6 501 14.8C515 23.7 529 41.3 542.8 45.3C556.7 49.3 570.3 39.7 584.2 41C598 42.3 612 54.7 626 64.5C640 74.3 654 81.7 668 71C682 60.3 696 31.7 709.8 25.2C723.7 18.7 737.3 34.3 751.2 39.3C765 44.3 779 38.7 793 37.8C807 37 821 41 835 46.7C849 52.3 863 59.7 876.8 67.3C890.7 75 904.3 83 918.2 83.3C932 83.7 946 76.3 953 72.7L960 69L960 0L953 0C946 0 932 0 918.2 0C904.3 0 890.7 0 876.8 0C863 0 849 0 835 0C821 0 807 0 793 0C779 0 765 0 751.2 0C737.3 0 723.7 0 709.8 0C696 0 682 0 668 0C654 0 640 0 626 0C612 0 598 0 584.2 0C570.3 0 556.7 0 542.8 0C529 0 515 0 501 0C487 0 473 0 459 0C445 0 431 0 417.2 0C403.3 0 389.7 0 375.8 0C362 0 348 0 334 0C320 0 306 0 292 0C278 0 264 0 250.2 0C236.3 0 222.7 0 208.8 0C195 0 181 0 167 0C153 0 139 0 125 0C111 0 97 0 83.2 0C69.3 0 55.7 0 41.8 0C28 0 14 0 7 0L0 0Z" fill="#3c31dd"></path><path d="M0 53L7 49.5C14 46 28 39 41.8 42.5C55.7 46 69.3 60 83.2 58.8C97 57.7 111 41.3 125 30.8C139 20.3 153 15.7 167 18.7C181 21.7 195 32.3 208.8 35.3C222.7 38.3 236.3 33.7 250.2 38C264 42.3 278 55.7 292 54C306 52.3 320 35.7 334 28.7C348 21.7 362 24.3 375.8 24.5C389.7 24.7 403.3 22.3 417.2 24C431 25.7 445 31.3 459 42.2C473 53 487 69 501 64.8C515 60.7 529 36.3 542.8 27.2C556.7 18 570.3 24 584.2 32.7C598 41.3 612 52.7 626 55C640 57.3 654 50.7 668 46.3C682 42 696 40 709.8 46.8C723.7 53.7 737.3 69.3 751.2 65.8C765 62.3 779 39.7 793 25.8C807 12 821 7 835 12.3C849 17.7 863 33.3 876.8 44.3C890.7 55.3 904.3 61.7 918.2 54.5C932 47.3 946 26.7 953 16.3L960 6L960 0L953 0C946 0 932 0 918.2 0C904.3 0 890.7 0 876.8 0C863 0 849 0 835 0C821 0 807 0 793 0C779 0 765 0 751.2 0C737.3 0 723.7 0 709.8 0C696 0 682 0 668 0C654 0 640 0 626 0C612 0 598 0 584.2 0C570.3 0 556.7 0 542.8 0C529 0 515 0 501 0C487 0 473 0 459 0C445 0 431 0 417.2 0C403.3 0 389.7 0 375.8 0C362 0 348 0 334 0C320 0 306 0 292 0C278 0 264 0 250.2 0C236.3 0 222.7 0 208.8 0C195 0 181 0 167 0C153 0 139 0 125 0C111 0 97 0 83.2 0C69.3 0 55.7 0 41.8 0C28 0 14 0 7 0L0 0Z" fill="#7524d2"></path><path d="M0 16L7 13.8C14 11.7 28 7.3 41.8 5.2C55.7 3 69.3 3 83.2 11C97 19 111 35 125 34.7C139 34.3 153 17.7 167 18.3C181 19 195 37 208.8 44.3C222.7 51.7 236.3 48.3 250.2 43.7C264 39 278 33 292 28.2C306 23.3 320 19.7 334 18C348 16.3 362 16.7 375.8 16C389.7 15.3 403.3 13.7 417.2 18.5C431 23.3 445 34.7 459 46.2C473 57.7 487 69.3 501 63.2C515 57 529 33 542.8 30.7C556.7 28.3 570.3 47.7 584.2 53.7C598 59.7 612 52.3 626 48C640 43.7 654 42.3 668 47C682 51.7 696 62.3 709.8 59.8C723.7 57.3 737.3 41.7 751.2 40.8C765 40 779 54 793 60.8C807 67.7 821 67.3 835 60.2C849 53 863 39 876.8 35.8C890.7 32.7 904.3 40.3 918.2 41.8C932 43.3 946 38.7 953 36.3L960 34L960 0L953 0C946 0 932 0 918.2 0C904.3 0 890.7 0 876.8 0C863 0 849 0 835 0C821 0 807 0 793 0C779 0 765 0 751.2 0C737.3 0 723.7 0 709.8 0C696 0 682 0 668 0C654 0 640 0 626 0C612 0 598 0 584.2 0C570.3 0 556.7 0 542.8 0C529 0 515 0 501 0C487 0 473 0 459 0C445 0 431 0 417.2 0C403.3 0 389.7 0 375.8 0C362 0 348 0 334 0C320 0 306 0 292 0C278 0 264 0 250.2 0C236.3 0 222.7 0 208.8 0C195 0 181 0 167 0C153 0 139 0 125 0C111 0 97 0 83.2 0C69.3 0 55.7 0 41.8 0C28 0 14 0 7 0L0 0Z" fill="#9814c6"></path><path d="M0 43L7 38.5C14 34 28 25 41.8 29.7C55.7 34.3 69.3 52.7 83.2 55.3C97 58 111 45 125 36.2C139 27.3 153 22.7 167 27.5C181 32.3 195 46.7 208.8 48.3C222.7 50 236.3 39 250.2 36.7C264 34.3 278 40.7 292 46.3C306 52 320 57 334 54C348 51 362 40 375.8 39.7C389.7 39.3 403.3 49.7 417.2 52.8C431 56 445 52 459 51.8C473 51.7 487 55.3 501 49.2C515 43 529 27 542.8 21.5C556.7 16 570.3 21 584.2 28.5C598 36 612 46 626 53C640 60 654 64 668 58.2C682 52.3 696 36.7 709.8 32.7C723.7 28.7 737.3 36.3 751.2 38.8C765 41.3 779 38.7 793 43.7C807 48.7 821 61.3 835 58.5C849 55.7 863 37.3 876.8 25.8C890.7 14.3 904.3 9.7 918.2 9.3C932 9 946 13 953 15L960 17L960 0L953 0C946 0 932 0 918.2 0C904.3 0 890.7 0 876.8 0C863 0 849 0 835 0C821 0 807 0 793 0C779 0 765 0 751.2 0C737.3 0 723.7 0 709.8 0C696 0 682 0 668 0C654 0 640 0 626 0C612 0 598 0 584.2 0C570.3 0 556.7 0 542.8 0C529 0 515 0 501 0C487 0 473 0 459 0C445 0 431 0 417.2 0C403.3 0 389.7 0 375.8 0C362 0 348 0 334 0C320 0 306 0 292 0C278 0 264 0 250.2 0C236.3 0 222.7 0 208.8 0C195 0 181 0 167 0C153 0 139 0 125 0C111 0 97 0 83.2 0C69.3 0 55.7 0 41.8 0C28 0 14 0 7 0L0 0Z" fill="#b200b9"></path><path d="M0 35L7 32C14 29 28 23 41.8 21.2C55.7 19.3 69.3 21.7 83.2 29.8C97 38 111 52 125 55.3C139 58.7 153 51.3 167 48.2C181 45 195 46 208.8 48.7C222.7 51.3 236.3 55.7 250.2 54C264 52.3 278 44.7 292 41.5C306 38.3 320 39.7 334 42.7C348 45.7 362 50.3 375.8 47.7C389.7 45 403.3 35 417.2 33.5C431 32 445 39 459 38.7C473 38.3 487 30.7 501 29.5C515 28.3 529 33.7 542.8 35.2C556.7 36.7 570.3 34.3 584.2 32C598 29.7 612 27.3 626 30.7C640 34 654 43 668 42.2C682 41.3 696 30.7 709.8 32.7C723.7 34.7 737.3 49.3 751.2 48.5C765 47.7 779 31.3 793 24.8C807 18.3 821 21.7 835 24C849 26.3 863 27.7 876.8 24.7C890.7 21.7 904.3 14.3 918.2 13.8C932 13.3 946 19.7 953 22.8L960 26L960 0L953 0C946 0 932 0 918.2 0C904.3 0 890.7 0 876.8 0C863 0 849 0 835 0C821 0 807 0 793 0C779 0 765 0 751.2 0C737.3 0 723.7 0 709.8 0C696 0 682 0 668 0C654 0 640 0 626 0C612 0 598 0 584.2 0C570.3 0 556.7 0 542.8 0C529 0 515 0 501 0C487 0 473 0 459 0C445 0 431 0 417.2 0C403.3 0 389.7 0 375.8 0C362 0 348 0 334 0C320 0 306 0 292 0C278 0 264 0 250.2 0C236.3 0 222.7 0 208.8 0C195 0 181 0 167 0C153 0 139 0 125 0C111 0 97 0 83.2 0C69.3 0 55.7 0 41.8 0C28 0 14 0 7 0L0 0Z" fill="#c700ad"></path><path d="M0 40L7 37.8C14 35.7 28 31.3 41.8 27C55.7 22.7 69.3 18.3 83.2 17.5C97 16.7 111 19.3 125 20.8C139 22.3 153 22.7 167 27.8C181 33 195 43 208.8 43C222.7 43 236.3 33 250.2 30C264 27 278 31 292 35.7C306 40.3 320 45.7 334 47C348 48.3 362 45.7 375.8 37.2C389.7 28.7 403.3 14.3 417.2 7.8C431 1.3 445 2.7 459 6.3C473 10 487 16 501 18.7C515 21.3 529 20.7 542.8 17.7C556.7 14.7 570.3 9.3 584.2 12.7C598 16 612 28 626 30.2C640 32.3 654 24.7 668 20.2C682 15.7 696 14.3 709.8 14.3C723.7 14.3 737.3 15.7 751.2 21.7C765 27.7 779 38.3 793 38.7C807 39 821 29 835 23.2C849 17.3 863 15.7 876.8 14.2C890.7 12.7 904.3 11.3 918.2 14.5C932 17.7 946 25.3 953 29.2L960 33L960 0L953 0C946 0 932 0 918.2 0C904.3 0 890.7 0 876.8 0C863 0 849 0 835 0C821 0 807 0 793 0C779 0 765 0 751.2 0C737.3 0 723.7 0 709.8 0C696 0 682 0 668 0C654 0 640 0 626 0C612 0 598 0 584.2 0C570.3 0 556.7 0 542.8 0C529 0 515 0 501 0C487 0 473 0 459 0C445 0 431 0 417.2 0C403.3 0 389.7 0 375.8 0C362 0 348 0 334 0C320 0 306 0 292 0C278 0 264 0 250.2 0C236.3 0 222.7 0 208.8 0C195 0 181 0 167 0C153 0 139 0 125 0C111 0 97 0 83.2 0C69.3 0 55.7 0 41.8 0C28 0 14 0 7 0L0 0Z" fill="#d700a0"></path><path d="M0 49L7 43.5C14 38 28 27 41.8 24.8C55.7 22.7 69.3 29.3 83.2 27.5C97 25.7 111 15.3 125 16.2C139 17 153 29 167 28.7C181 28.3 195 15.7 208.8 14.7C222.7 13.7 236.3 24.3 250.2 31C264 37.7 278 40.3 292 42.7C306 45 320 47 334 41.5C348 36 362 23 375.8 22.2C389.7 21.3 403.3 32.7 417.2 32.7C431 32.7 445 21.3 459 18.8C473 16.3 487 22.7 501 23.5C515 24.3 529 19.7 542.8 21.2C556.7 22.7 570.3 30.3 584.2 33.7C598 37 612 36 626 34.7C640 33.3 654 31.7 668 33.7C682 35.7 696 41.3 709.8 43C723.7 44.7 737.3 42.3 751.2 42.2C765 42 779 44 793 41.2C807 38.3 821 30.7 835 30.3C849 30 863 37 876.8 39.8C890.7 42.7 904.3 41.3 918.2 40.3C932 39.3 946 38.7 953 38.3L960 38L960 0L953 0C946 0 932 0 918.2 0C904.3 0 890.7 0 876.8 0C863 0 849 0 835 0C821 0 807 0 793 0C779 0 765 0 751.2 0C737.3 0 723.7 0 709.8 0C696 0 682 0 668 0C654 0 640 0 626 0C612 0 598 0 584.2 0C570.3 0 556.7 0 542.8 0C529 0 515 0 501 0C487 0 473 0 459 0C445 0 431 0 417.2 0C403.3 0 389.7 0 375.8 0C362 0 348 0 334 0C320 0 306 0 292 0C278 0 264 0 250.2 0C236.3 0 222.7 0 208.8 0C195 0 181 0 167 0C153 0 139 0 125 0C111 0 97 0 83.2 0C69.3 0 55.7 0 41.8 0C28 0 14 0 7 0L0 0Z" fill="#e40e94"></path><path d="M0 21L7 19.3C14 17.7 28 14.3 41.8 12.7C55.7 11 69.3 11 83.2 12.8C97 14.7 111 18.3 125 22.8C139 27.3 153 32.7 167 30.5C181 28.3 195 18.7 208.8 17.8C222.7 17 236.3 25 250.2 27.7C264 30.3 278 27.7 292 27C306 26.3 320 27.7 334 28.2C348 28.7 362 28.3 375.8 23.5C389.7 18.7 403.3 9.3 417.2 5.2C431 1 445 2 459 6.7C473 11.3 487 19.7 501 22.8C515 26 529 24 542.8 19.8C556.7 15.7 570.3 9.3 584.2 6.8C598 4.3 612 5.7 626 9.3C640 13 654 19 668 25C682 31 696 37 709.8 34.7C723.7 32.3 737.3 21.7 751.2 16.2C765 10.7 779 10.3 793 11.2C807 12 821 14 835 16.2C849 18.3 863 20.7 876.8 22.2C890.7 23.7 904.3 24.3 918.2 23.3C932 22.3 946 19.7 953 18.3L960 17L960 0L953 0C946 0 932 0 918.2 0C904.3 0 890.7 0 876.8 0C863 0 849 0 835 0C821 0 807 0 793 0C779 0 765 0 751.2 0C737.3 0 723.7 0 709.8 0C696 0 682 0 668 0C654 0 640 0 626 0C612 0 598 0 584.2 0C570.3 0 556.7 0 542.8 0C529 0 515 0 501 0C487 0 473 0 459 0C445 0 431 0 417.2 0C403.3 0 389.7 0 375.8 0C362 0 348 0 334 0C320 0 306 0 292 0C278 0 264 0 250.2 0C236.3 0 222.7 0 208.8 0C195 0 181 0 167 0C153 0 139 0 125 0C111 0 97 0 83.2 0C69.3 0 55.7 0 41.8 0C28 0 14 0 7 0L0 0Z" fill="#ee2489"></path><path d="M0 22L7 18.7C14 15.3 28 8.7 41.8 10.5C55.7 12.3 69.3 22.7 83.2 23.7C97 24.7 111 16.3 125 15.2C139 14 153 20 167 24.2C181 28.3 195 30.7 208.8 27.7C222.7 24.7 236.3 16.3 250.2 15.2C264 14 278 20 292 18.8C306 17.7 320 9.3 334 8C348 6.7 362 12.3 375.8 17.2C389.7 22 403.3 26 417.2 26.3C431 26.7 445 23.3 459 21.3C473 19.3 487 18.7 501 18.7C515 18.7 529 19.3 542.8 18.8C556.7 18.3 570.3 16.7 584.2 15.2C598 13.7 612 12.3 626 13.8C640 15.3 654 19.7 668 21.3C682 23 696 22 709.8 24C723.7 26 737.3 31 751.2 27.5C765 24 779 12 793 11.7C807 11.3 821 22.7 835 23.7C849 24.7 863 15.3 876.8 13C890.7 10.7 904.3 15.3 918.2 17.7C932 20 946 20 953 20L960 20L960 0L953 0C946 0 932 0 918.2 0C904.3 0 890.7 0 876.8 0C863 0 849 0 835 0C821 0 807 0 793 0C779 0 765 0 751.2 0C737.3 0 723.7 0 709.8 0C696 0 682 0 668 0C654 0 640 0 626 0C612 0 598 0 584.2 0C570.3 0 556.7 0 542.8 0C529 0 515 0 501 0C487 0 473 0 459 0C445 0 431 0 417.2 0C403.3 0 389.7 0 375.8 0C362 0 348 0 334 0C320 0 306 0 292 0C278 0 264 0 250.2 0C236.3 0 222.7 0 208.8 0C195 0 181 0 167 0C153 0 139 0 125 0C111 0 97 0 83.2 0C69.3 0 55.7 0 41.8 0C28 0 14 0 7 0L0 0Z" fill="#f5377f"></path><path d="M0 24L7 21.5C14 19 28 14 41.8 11C55.7 8 69.3 7 83.2 7.2C97 7.3 111 8.7 125 9.3C139 10 153 10 167 11.5C181 13 195 16 208.8 15C222.7 14 236.3 9 250.2 7.8C264 6.7 278 9.3 292 11C306 12.7 320 13.3 334 14.8C348 16.3 362 18.7 375.8 21.3C389.7 24 403.3 27 417.2 27C431 27 445 24 459 19.2C473 14.3 487 7.7 501 8.5C515 9.3 529 17.7 542.8 22.2C556.7 26.7 570.3 27.3 584.2 27.8C598 28.3 612 28.7 626 26.2C640 23.7 654 18.3 668 14.7C682 11 696 9 709.8 10.8C723.7 12.7 737.3 18.3 751.2 21.8C765 25.3 779 26.7 793 27.5C807 28.3 821 28.7 835 27.2C849 25.7 863 22.3 876.8 20C890.7 17.7 904.3 16.3 918.2 13.3C932 10.3 946 5.7 953 3.3L960 1L960 0L953 0C946 0 932 0 918.2 0C904.3 0 890.7 0 876.8 0C863 0 849 0 835 0C821 0 807 0 793 0C779 0 765 0 751.2 0C737.3 0 723.7 0 709.8 0C696 0 682 0 668 0C654 0 640 0 626 0C612 0 598 0 584.2 0C570.3 0 556.7 0 542.8 0C529 0 515 0 501 0C487 0 473 0 459 0C445 0 431 0 417.2 0C403.3 0 389.7 0 375.8 0C362 0 348 0 334 0C320 0 306 0 292 0C278 0 264 0 250.2 0C236.3 0 222.7 0 208.8 0C195 0 181 0 167 0C153 0 139 0 125 0C111 0 97 0 83.2 0C69.3 0 55.7 0 41.8 0C28 0 14 0 7 0L0 0Z" fill="#fa4976"></path><path d="M0 11L7 10.5C14 10 28 9 41.8 10C55.7 11 69.3 14 83.2 15C97 16 111 15 125 15.2C139 15.3 153 16.7 167 14.3C181 12 195 6 208.8 6.5C222.7 7 236.3 14 250.2 15.2C264 16.3 278 11.7 292 8.3C306 5 320 3 334 1.8C348 0.7 362 0.3 375.8 1.7C389.7 3 403.3 6 417.2 6.7C431 7.3 445 5.7 459 7.7C473 9.7 487 15.3 501 15.2C515 15 529 9 542.8 8.2C556.7 7.3 570.3 11.7 584.2 14.2C598 16.7 612 17.3 626 18C640 18.7 654 19.3 668 18.2C682 17 696 14 709.8 12.5C723.7 11 737.3 11 751.2 10.2C765 9.3 779 7.7 793 8.8C807 10 821 14 835 16C849 18 863 18 876.8 15.5C890.7 13 904.3 8 918.2 7.3C932 6.7 946 10.3 953 12.2L960 14L960 0L953 0C946 0 932 0 918.2 0C904.3 0 890.7 0 876.8 0C863 0 849 0 835 0C821 0 807 0 793 0C779 0 765 0 751.2 0C737.3 0 723.7 0 709.8 0C696 0 682 0 668 0C654 0 640 0 626 0C612 0 598 0 584.2 0C570.3 0 556.7 0 542.8 0C529 0 515 0 501 0C487 0 473 0 459 0C445 0 431 0 417.2 0C403.3 0 389.7 0 375.8 0C362 0 348 0 334 0C320 0 306 0 292 0C278 0 264 0 250.2 0C236.3 0 222.7 0 208.8 0C195 0 181 0 167 0C153 0 139 0 125 0C111 0 97 0 83.2 0C69.3 0 55.7 0 41.8 0C28 0 14 0 7 0L0 0Z" fill="#fe596f"></path><path d="M0 12L7 10.3C14 8.7 28 5.3 41.8 4.5C55.7 3.7 69.3 5.3 83.2 7.2C97 9 111 11 125 11.5C139 12 153 11 167 10.2C181 9.3 195 8.7 208.8 8.7C222.7 8.7 236.3 9.3 250.2 9.5C264 9.7 278 9.3 292 8.8C306 8.3 320 7.7 334 6.7C348 5.7 362 4.3 375.8 5.2C389.7 6 403.3 9 417.2 8.5C431 8 445 4 459 2.8C473 1.7 487 3.3 501 4C515 4.7 529 4.3 542.8 4.7C556.7 5 570.3 6 584.2 5.8C598 5.7 612 4.3 626 4.5C640 4.7 654 6.3 668 6.5C682 6.7 696 5.3 709.8 4.2C723.7 3 737.3 2 751.2 1.3C765 0.7 779 0.3 793 0.8C807 1.3 821 2.7 835 2.8C849 3 863 2 876.8 3.3C890.7 4.7 904.3 8.3 918.2 8.3C932 8.3 946 4.7 953 2.8L960 1L960 0L953 0C946 0 932 0 918.2 0C904.3 0 890.7 0 876.8 0C863 0 849 0 835 0C821 0 807 0 793 0C779 0 765 0 751.2 0C737.3 0 723.7 0 709.8 0C696 0 682 0 668 0C654 0 640 0 626 0C612 0 598 0 584.2 0C570.3 0 556.7 0 542.8 0C529 0 515 0 501 0C487 0 473 0 459 0C445 0 431 0 417.2 0C403.3 0 389.7 0 375.8 0C362 0 348 0 334 0C320 0 306 0 292 0C278 0 264 0 250.2 0C236.3 0 222.7 0 208.8 0C195 0 181 0 167 0C153 0 139 0 125 0C111 0 97 0 83.2 0C69.3 0 55.7 0 41.8 0C28 0 14 0 7 0L0 0Z" fill="#ff6969"></path></svg>