<svg id="visual" viewBox="0 0 960 100" width="960" height="100" xmlns="http://www.w3.org/2000/svg" xmlns:xlink="http://www.w3.org/1999/xlink" version="1.1"><rect x="0" y="0" width="960" height="100" fill="#202731"></rect><path d="M0 48L10.7 50.8C21.3 53.7 42.7 59.3 64 61.8C85.3 64.3 106.7 63.7 128 61C149.3 58.3 170.7 53.7 192 52.2C213.3 50.7 234.7 52.3 256 52.5C277.3 52.7 298.7 51.3 320 50.2C341.3 49 362.7 48 384 49.2C405.3 50.3 426.7 53.7 448 55.8C469.3 58 490.7 59 512 57.3C533.3 55.7 554.7 51.3 576 52.5C597.3 53.7 618.7 60.3 640 63.3C661.3 66.3 682.7 65.7 704 62C725.3 58.3 746.7 51.7 768 50C789.3 48.3 810.7 51.7 832 54.3C853.3 57 874.7 59 896 59.2C917.3 59.3 938.7 57.7 949.3 56.8L960 56L960 0L949.3 0C938.7 0 917.3 0 896 0C874.7 0 853.3 0 832 0C810.7 0 789.3 0 768 0C746.7 0 725.3 0 704 0C682.7 0 661.3 0 640 0C618.7 0 597.3 0 576 0C554.7 0 533.3 0 512 0C490.7 0 469.3 0 448 0C426.7 0 405.3 0 384 0C362.7 0 341.3 0 320 0C298.7 0 277.3 0 256 0C234.7 0 213.3 0 192 0C170.7 0 149.3 0 128 0C106.7 0 85.3 0 64 0C42.7 0 21.3 0 10.7 0L0 0Z" fill="#202731"></path><path d="M0 57L10.7 54.8C21.3 52.7 42.7 48.3 64 47.5C85.3 46.7 106.7 49.3 128 51.7C149.3 54 170.7 56 192 55.2C213.3 54.3 234.7 50.7 256 50.7C277.3 50.7 298.7 54.3 320 53.3C341.3 52.3 362.7 46.7 384 45.7C405.3 44.7 426.7 48.3 448 52C469.3 55.7 490.7 59.3 512 61.2C533.3 63 554.7 63 576 60.7C597.3 58.3 618.7 53.7 640 51.7C661.3 49.7 682.7 50.3 704 51.2C725.3 52 746.7 53 768 53C789.3 53 810.7 52 832 51.7C853.3 51.3 874.7 51.7 896 51.2C917.3 50.7 938.7 49.3 949.3 48.7L960 48L960 0L949.3 0C938.7 0 917.3 0 896 0C874.7 0 853.3 0 832 0C810.7 0 789.3 0 768 0C746.7 0 725.3 0 704 0C682.7 0 661.3 0 640 0C618.7 0 597.3 0 576 0C554.7 0 533.3 0 512 0C490.7 0 469.3 0 448 0C426.7 0 405.3 0 384 0C362.7 0 341.3 0 320 0C298.7 0 277.3 0 256 0C234.7 0 213.3 0 192 0C170.7 0 149.3 0 128 0C106.7 0 85.3 0 64 0C42.7 0 21.3 0 10.7 0L0 0Z" fill="#2b3246"></path><path d="M0 53L10.7 50.5C21.3 48 42.7 43 64 40.3C85.3 37.7 106.7 37.3 128 38.3C149.3 39.3 170.7 41.7 192 43.5C213.3 45.3 234.7 46.7 256 46C277.3 45.3 298.7 42.7 320 41.3C341.3 40 362.7 40 384 40.3C405.3 40.7 426.7 41.3 448 42.3C469.3 43.3 490.7 44.7 512 45.5C533.3 46.3 554.7 46.7 576 48C597.3 49.3 618.7 51.7 640 52.7C661.3 53.7 682.7 53.3 704 51.8C725.3 50.3 746.7 47.7 768 45.5C789.3 43.3 810.7 41.7 832 41.7C853.3 41.7 874.7 43.3 896 43.2C917.3 43 938.7 41 949.3 40L960 39L960 0L949.3 0C938.7 0 917.3 0 896 0C874.7 0 853.3 0 832 0C810.7 0 789.3 0 768 0C746.7 0 725.3 0 704 0C682.7 0 661.3 0 640 0C618.7 0 597.3 0 576 0C554.7 0 533.3 0 512 0C490.7 0 469.3 0 448 0C426.7 0 405.3 0 384 0C362.7 0 341.3 0 320 0C298.7 0 277.3 0 256 0C234.7 0 213.3 0 192 0C170.7 0 149.3 0 128 0C106.7 0 85.3 0 64 0C42.7 0 21.3 0 10.7 0L0 0Z" fill="#3c3b59"></path><path d="M0 43L10.7 43.7C21.3 44.3 42.7 45.7 64 45C85.3 44.3 106.7 41.7 128 39.8C149.3 38 170.7 37 192 37.8C213.3 38.7 234.7 41.3 256 41.7C277.3 42 298.7 40 320 38.7C341.3 37.3 362.7 36.7 384 37.2C405.3 37.7 426.7 39.3 448 40.5C469.3 41.7 490.7 42.3 512 41.2C533.3 40 554.7 37 576 36.5C597.3 36 618.7 38 640 39.5C661.3 41 682.7 42 704 41.8C725.3 41.7 746.7 40.3 768 39.3C789.3 38.3 810.7 37.7 832 39.2C853.3 40.7 874.7 44.3 896 44.3C917.3 44.3 938.7 40.7 949.3 38.8L960 37L960 0L949.3 0C938.7 0 917.3 0 896 0C874.7 0 853.3 0 832 0C810.7 0 789.3 0 768 0C746.7 0 725.3 0 704 0C682.7 0 661.3 0 640 0C618.7 0 597.3 0 576 0C554.7 0 533.3 0 512 0C490.7 0 469.3 0 448 0C426.7 0 405.3 0 384 0C362.7 0 341.3 0 320 0C298.7 0 277.3 0 256 0C234.7 0 213.3 0 192 0C170.7 0 149.3 0 128 0C106.7 0 85.3 0 64 0C42.7 0 21.3 0 10.7 0L0 0Z" fill="#54436a"></path><path d="M0 31L10.7 32.3C21.3 33.7 42.7 36.3 64 37.7C85.3 39 106.7 39 128 37.7C149.3 36.3 170.7 33.7 192 32.8C213.3 32 234.7 33 256 35.2C277.3 37.3 298.7 40.7 320 41.8C341.3 43 362.7 42 384 40.5C405.3 39 426.7 37 448 36.3C469.3 35.7 490.7 36.3 512 35.7C533.3 35 554.7 33 576 34C597.3 35 618.7 39 640 40.7C661.3 42.3 682.7 41.7 704 39.7C725.3 37.7 746.7 34.3 768 33C789.3 31.7 810.7 32.3 832 34.3C853.3 36.3 874.7 39.7 896 40.5C917.3 41.3 938.7 39.7 949.3 38.8L960 38L960 0L949.3 0C938.7 0 917.3 0 896 0C874.7 0 853.3 0 832 0C810.7 0 789.3 0 768 0C746.7 0 725.3 0 704 0C682.7 0 661.3 0 640 0C618.7 0 597.3 0 576 0C554.7 0 533.3 0 512 0C490.7 0 469.3 0 448 0C426.7 0 405.3 0 384 0C362.7 0 341.3 0 320 0C298.7 0 277.3 0 256 0C234.7 0 213.3 0 192 0C170.7 0 149.3 0 128 0C106.7 0 85.3 0 64 0C42.7 0 21.3 0 10.7 0L0 0Z" fill="#704977"></path><path d="M0 32L10.7 31.8C21.3 31.7 42.7 31.3 64 32C85.3 32.7 106.7 34.3 128 33.3C149.3 32.3 170.7 28.7 192 28.7C213.3 28.7 234.7 32.3 256 33.5C277.3 34.7 298.7 33.3 320 31.2C341.3 29 362.7 26 384 25C405.3 24 426.7 25 448 25.3C469.3 25.7 490.7 25.3 512 27C533.3 28.7 554.7 32.3 576 34C597.3 35.7 618.7 35.3 640 34.3C661.3 33.3 682.7 31.7 704 30.5C725.3 29.3 746.7 28.7 768 28C789.3 27.3 810.7 26.7 832 26.3C853.3 26 874.7 26 896 27.2C917.3 28.3 938.7 30.7 949.3 31.8L960 33L960 0L949.3 0C938.7 0 917.3 0 896 0C874.7 0 853.3 0 832 0C810.7 0 789.3 0 768 0C746.7 0 725.3 0 704 0C682.7 0 661.3 0 640 0C618.7 0 597.3 0 576 0C554.7 0 533.3 0 512 0C490.7 0 469.3 0 448 0C426.7 0 405.3 0 384 0C362.7 0 341.3 0 320 0C298.7 0 277.3 0 256 0C234.7 0 213.3 0 192 0C170.7 0 149.3 0 128 0C106.7 0 85.3 0 64 0C42.7 0 21.3 0 10.7 0L0 0Z" fill="#8f4d7f"></path><path d="M0 19L10.7 20.7C21.3 22.3 42.7 25.7 64 26.8C85.3 28 106.7 27 128 27.2C149.3 27.3 170.7 28.7 192 28.3C213.3 28 234.7 26 256 24.2C277.3 22.3 298.7 20.7 320 19.8C341.3 19 362.7 19 384 19.5C405.3 20 426.7 21 448 21.5C469.3 22 490.7 22 512 22.7C533.3 23.3 554.7 24.7 576 24.7C597.3 24.7 618.7 23.3 640 23.5C661.3 23.7 682.7 25.3 704 26.5C725.3 27.7 746.7 28.3 768 27.2C789.3 26 810.7 23 832 21.5C853.3 20 874.7 20 896 21.3C917.3 22.7 938.7 25.3 949.3 26.7L960 28L960 0L949.3 0C938.7 0 917.3 0 896 0C874.7 0 853.3 0 832 0C810.7 0 789.3 0 768 0C746.7 0 725.3 0 704 0C682.7 0 661.3 0 640 0C618.7 0 597.3 0 576 0C554.7 0 533.3 0 512 0C490.7 0 469.3 0 448 0C426.7 0 405.3 0 384 0C362.7 0 341.3 0 320 0C298.7 0 277.3 0 256 0C234.7 0 213.3 0 192 0C170.7 0 149.3 0 128 0C106.7 0 85.3 0 64 0C42.7 0 21.3 0 10.7 0L0 0Z" fill="#ae5182"></path><path d="M0 15L10.7 15.7C21.3 16.3 42.7 17.7 64 18.2C85.3 18.7 106.7 18.3 128 18.7C149.3 19 170.7 20 192 20.5C213.3 21 234.7 21 256 20.3C277.3 19.7 298.7 18.3 320 18C341.3 17.7 362.7 18.3 384 18.2C405.3 18 426.7 17 448 17.7C469.3 18.3 490.7 20.7 512 21.2C533.3 21.7 554.7 20.3 576 19.8C597.3 19.3 618.7 19.7 640 19.5C661.3 19.3 682.7 18.7 704 18C725.3 17.3 746.7 16.7 768 16.5C789.3 16.3 810.7 16.7 832 17.8C853.3 19 874.7 21 896 20.8C917.3 20.7 938.7 18.3 949.3 17.2L960 16L960 0L949.3 0C938.7 0 917.3 0 896 0C874.7 0 853.3 0 832 0C810.7 0 789.3 0 768 0C746.7 0 725.3 0 704 0C682.7 0 661.3 0 640 0C618.7 0 597.3 0 576 0C554.7 0 533.3 0 512 0C490.7 0 469.3 0 448 0C426.7 0 405.3 0 384 0C362.7 0 341.3 0 320 0C298.7 0 277.3 0 256 0C234.7 0 213.3 0 192 0C170.7 0 149.3 0 128 0C106.7 0 85.3 0 64 0C42.7 0 21.3 0 10.7 0L0 0Z" fill="#cd557f"></path><path d="M0 13L10.7 13.5C21.3 14 42.7 15 64 14.8C85.3 14.7 106.7 13.3 128 13.2C149.3 13 170.7 14 192 14.5C213.3 15 234.7 15 256 15.2C277.3 15.3 298.7 15.7 320 15.3C341.3 15 362.7 14 384 13.7C405.3 13.3 426.7 13.7 448 13.3C469.3 13 490.7 12 512 11.5C533.3 11 554.7 11 576 11.7C597.3 12.3 618.7 13.7 640 14.7C661.3 15.7 682.7 16.3 704 16.3C725.3 16.3 746.7 15.7 768 15C789.3 14.3 810.7 13.7 832 13.8C853.3 14 874.7 15 896 15.7C917.3 16.3 938.7 16.7 949.3 16.8L960 17L960 0L949.3 0C938.7 0 917.3 0 896 0C874.7 0 853.3 0 832 0C810.7 0 789.3 0 768 0C746.7 0 725.3 0 704 0C682.7 0 661.3 0 640 0C618.7 0 597.3 0 576 0C554.7 0 533.3 0 512 0C490.7 0 469.3 0 448 0C426.7 0 405.3 0 384 0C362.7 0 341.3 0 320 0C298.7 0 277.3 0 256 0C234.7 0 213.3 0 192 0C170.7 0 149.3 0 128 0C106.7 0 85.3 0 64 0C42.7 0 21.3 0 10.7 0L0 0Z" fill="#e85d76"></path><path d="M0 6L10.7 6.3C21.3 6.7 42.7 7.3 64 7.7C85.3 8 106.7 8 128 8C149.3 8 170.7 8 192 8.3C213.3 8.7 234.7 9.3 256 9.5C277.3 9.7 298.7 9.3 320 9C341.3 8.7 362.7 8.3 384 8.7C405.3 9 426.7 10 448 10C469.3 10 490.7 9 512 8.5C533.3 8 554.7 8 576 8C597.3 8 618.7 8 640 8.3C661.3 8.7 682.7 9.3 704 9.7C725.3 10 746.7 10 768 10.2C789.3 10.3 810.7 10.7 832 10C853.3 9.3 874.7 7.7 896 6.8C917.3 6 938.7 6 949.3 6L960 6L960 0L949.3 0C938.7 0 917.3 0 896 0C874.7 0 853.3 0 832 0C810.7 0 789.3 0 768 0C746.7 0 725.3 0 704 0C682.7 0 661.3 0 640 0C618.7 0 597.3 0 576 0C554.7 0 533.3 0 512 0C490.7 0 469.3 0 448 0C426.7 0 405.3 0 384 0C362.7 0 341.3 0 320 0C298.7 0 277.3 0 256 0C234.7 0 213.3 0 192 0C170.7 0 149.3 0 128 0C106.7 0 85.3 0 64 0C42.7 0 21.3 0 10.7 0L0 0Z" fill="#ff6969"></path></svg>